<?xml version="1.0" encoding="utf-8"?>
<!-- Generator: Adobe Illustrator 16.0.0, SVG Export Plug-In . SVG Version: 6.00 Build 0)  -->
<!DOCTYPE svg PUBLIC "-//W3C//DTD SVG 1.1//EN" "http://www.w3.org/Graphics/SVG/1.1/DTD/svg11.dtd">
<svg version="1.1" id="Layer_1" xmlns="http://www.w3.org/2000/svg" xmlns:xlink="http://www.w3.org/1999/xlink" x="0px" y="0px"
	 width="145px" height="215px" viewBox="0 0 145 215" enable-background="new 0 0 145 215" xml:space="preserve">
<g>
	<g>
		<path fill="#FFFFFF" stroke="#FFFFFF" stroke-miterlimit="10" d="M61.609,190.384c3.926,6.847,8.123,13.539,11.594,20.642
			c0.35,0,0.699,0,1.053,0c0.412-0.866,0.768-1.768,1.244-2.598c9.08-15.837,18.156-31.674,27.27-47.49
			c8.119-14.099,31.992-54.604,34.98-67.605C67.082,173.165,47.568,130.91,7.902,94.744C11.375,108.5,46.922,164.76,61.609,190.384z
			"/>
	</g>
	<g>
		
			<ellipse fill="none" stroke="#FFFFFF" stroke-width="10" stroke-miterlimit="10" cx="72.609" cy="73.467" rx="63.637" ry="63.961"/>
		<line fill="none" stroke="#FFFFFF" stroke-width="10" stroke-miterlimit="10" x1="14.544" y1="47.613" x2="130.678" y2="47.613"/>
		<path fill="#FFFFFF" stroke="#FFFFFF" stroke-miterlimit="10" d="M16.476,89.997v-8.405c1.259,1.278,2.626,2.236,4.103,2.876
			c1.475,0.64,2.966,0.958,4.471,0.958c0.881,0,1.652-0.095,2.311-0.288c0.658-0.192,1.207-0.46,1.65-0.801
			c0.44-0.343,0.769-0.745,0.986-1.209c0.217-0.464,0.326-0.968,0.326-1.511c0-0.735-0.174-1.392-0.521-1.97
			c-0.347-0.578-0.821-1.112-1.422-1.603c-0.6-0.49-1.313-0.963-2.138-1.419c-0.825-0.455-1.714-0.919-2.669-1.392
			c-2.432-1.226-4.243-2.723-5.438-4.492c-1.192-1.769-1.789-3.905-1.789-6.409c0-1.962,0.324-3.647,0.977-5.058
			c0.65-1.409,1.537-2.57,2.658-3.48s2.42-1.58,3.896-2.01c1.475-0.429,3.037-0.643,4.688-0.643c1.62,0,3.057,0.118,4.309,0.354
			c1.25,0.236,2.404,0.6,3.461,1.09v7.855c-0.521-0.438-1.09-0.823-1.703-1.156c-0.616-0.332-1.248-0.608-1.9-0.827
			c-0.65-0.219-1.299-0.381-1.941-0.486c-0.645-0.104-1.256-0.157-1.836-0.157c-0.795,0-1.518,0.092-2.169,0.275
			c-0.651,0.183-1.201,0.442-1.649,0.775c-0.449,0.333-0.796,0.731-1.041,1.195c-0.247,0.464-0.369,0.985-0.369,1.563
			c0,0.631,0.138,1.195,0.412,1.694s0.665,0.973,1.172,1.419c0.506,0.446,1.121,0.885,1.845,1.313
			c0.723,0.429,1.542,0.871,2.452,1.326c1.244,0.631,2.361,1.301,3.354,2.01c0.991,0.709,1.84,1.511,2.55,2.404
			c0.708,0.893,1.251,1.913,1.628,3.06c0.376,1.147,0.564,2.482,0.564,4.007c0,2.101-0.33,3.865-0.988,5.292
			c-0.657,1.428-1.551,2.584-2.68,3.468c-1.129,0.885-2.441,1.52-3.938,1.904c-1.497,0.384-3.079,0.578-4.743,0.578
			c-1.707,0-3.331-0.175-4.871-0.525C18.938,91.223,17.604,90.698,16.476,89.997z M64.677,60.681h-8.876v30.761h-7.032V60.681
			h-8.833v-6.908h24.742v6.908H64.677z M87.531,91.441H68.866V53.772h17.948v6.908H75.875v8.381h10.18v6.882h-10.18v8.616h11.656
			V91.441z M127.984,91.441h-6.924V68.903c0-2.434,0.088-5.122,0.262-8.064h-0.174c-0.363,2.312-0.688,3.976-0.979,4.991
			l-7.293,25.611h-5.729l-7.422-25.349c-0.203-0.684-0.528-2.434-0.979-5.254h-0.192c0.187,3.713,0.28,6.971,0.28,9.772v20.83H92.52
			V53.771h10.268l6.357,22.328c0.506,1.787,0.875,3.582,1.107,5.386h0.129c0.391-2.084,0.803-3.896,1.238-5.438l6.357-22.276h10.006
			v37.67H127.984z M129.83,98.402c0,0,13.215-27.103-0.641-48.525c-1.998-3.085-111.807-1.407-111.807-1.407
			s-7.956,23.584-0.272,52.78h110.75"/>
		<g>
			<path fill="#010101" d="M121.615,97.342"/>
			<g>
				<path fill="none" stroke="#010101" stroke-miterlimit="10" d="M121.615,97.342"/>
			</g>
		</g>
		<g>
			<path fill="#010101" d="M121.615,96.713"/>
			<g>
				<path fill="none" stroke="#010101" stroke-miterlimit="10" d="M121.615,96.713"/>
			</g>
		</g>
	</g>
</g>
</svg>
