<?xml version="1.0" encoding="iso-8859-1"?>
<!-- Generator: Adobe Illustrator 16.0.0, SVG Export Plug-In . SVG Version: 6.00 Build 0)  -->
<svg version="1.2" baseProfile="tiny" id="Layer_1" xmlns="http://www.w3.org/2000/svg" xmlns:xlink="http://www.w3.org/1999/xlink"
	 x="0px" y="0px" width="1500px" height="500px" viewBox="0 0 1500 500" xml:space="preserve">
<g>
	<path fill-rule="evenodd" d="M196.767,500.799c-0.215-14.943-0.553-29.888-0.554-44.831c0-3.509,1.141-7.018,1.757-10.525
		c0.665-3.791,1.602-7.56,1.909-11.38c0.257-3.19-0.674-6.136-5.062-6.653c1.824-5.813,3.918-11.221,5.178-16.816
		c1.692-7.513,2.112-15.348,4.208-22.723c3.213-11.303,1.86-22.813,2.839-34.202c0.968-11.262,1.811-22.536,2.89-33.788
		c0.779-8.115,1.538-16.258,2.926-24.28c0.741-4.281,2.051-8.837,4.424-12.385c4.477-6.695,3.741-13.189,1.538-20.189
		c-1.018-3.233-1.329-6.694-1.879-10.066c-0.51-3.121-0.654-6.325-1.424-9.375c-1.077-4.263-3.628-8.084-1.62-12.991
		c0.754-1.841-0.385-4.95-1.532-6.992c-5.573-9.912-5.034-19.193,0.97-28.896c3.816-6.167,6.052-13.292,9.315-19.828
		c2.509-5.027,5.491-9.819,8.328-14.677c0.395-0.676,1.075-1.398,1.782-1.646c5.748-2.015,11.343-3.456,17.352-0.115
		c6.391,3.554,13.264,6.273,17.72,12.809c-0.716-2.75-1.432-5.5-2.278-8.752c11.595,9.815,11.679,23.97,15.573,36.471
		c0.437-0.011,0.875-0.022,1.312-0.033c0.827-5.493,1.655-10.986,2.482-16.479c0.373-0.012,0.746-0.024,1.119-0.037
		c0.2,1.083,0.478,2.157,0.586,3.249c0.711,7.158,0.781,14.451,2.313,21.425c0.834,3.797,4.107,7.069,6.325,10.549
		c1.873,2.939,3.812,5.836,5.641,8.629c-0.292,0.983-1.342,2.761-1.208,4.445c0.246,3.112,2.928,2,4.879,2.176
		c11.602,1.042,11.849,0.561,13.27-11.564c0.093-0.797,0.342-1.576,1.241-2.492c0.568,2.13,1.136,4.26,2.014,7.553
		c3.544-4.516,4.965-9.035,6.504-13.626c3.292-9.816,6.116-19.939,10.853-29.042c1.796-3.451,3.301-6.875,4.6-10.59
		c-3.61,0-7.189-0.045-10.766,0.036c-0.777,0.017-2.063,0.3-2.235,0.778c-1.721,4.76-4.479,1.61-6.804,0.923
		c-2.395-0.708-4.71-1.684-7.061-2.542c-0.275,0.421-0.55,0.842-0.825,1.263c0.853,1.078,1.616,2.245,2.575,3.217
		c4.498,4.56,8.685,9.263,10.509,15.666c1.143,4.014,0.502,6.295-3.594,9.227c-0.297-2.29-0.816-4.409-0.807-6.526
		c0.048-10.785-6.385-17.723-14.268-23.523c-5.86-4.313-12.195-7.989-18.388-11.836c-1.523-0.946-3.317-1.457-6.051-2.621
		c3.035,9.559,5.684,17.902,8.333,26.246c-0.364,0.15-0.729,0.299-1.093,0.449c-0.98-1.958-2.049-3.878-2.917-5.884
		c-0.931-2.152-1.727-4.368-2.481-6.59c-0.755-2.225-1.405-4.487-2.066-6.743c-0.583-1.988-1.241-3.965-1.646-5.991
		c-0.898-4.482-2.605-7.741-8.121-6.963c-1.319,0.186-2.793-0.728-4.463-1.213c6.402-5.128,12.953-4.159,17.779,1.48
		c11.07,12.937,25.439,18.015,42.226,16.581c3.293-0.281,6.617-0.715,9.806-1.543c3.765-0.978,5.354-3.512,5.476-7.628
		c-0.236-0.076-0.564-0.297-0.705-0.211c-8.436,5.167-16.791,1.768-24.751-0.907c-7.644-2.568-15.04-6.131-22.123-10.025
		c-5.854-3.218-5.363-5.213-1.354-8.659c1.611-1.385,2.488-3.962,3.045-6.163c0.981-3.875,1.661-7.858,2.04-11.836
		c0.133-1.399-1.048-2.898-1.515-4.388c-0.382-1.22-0.52-2.517-0.898-3.738c-0.948-3.063-2.057-6.077-2.929-9.16
		c-0.449-1.586-0.773-3.285-0.727-4.92c0.101-3.486,0.313-6.987,0.776-10.443c1.294-9.668,0.44-19.399,6.444-28.58
		c3.79-5.796,8.149-8.022,13.821-9.526c6.002-1.592,12.044-3.635,18.166-4.048c12.863-0.868,24.354,2.707,32.776,13.29
		c0.603,0.757,0.971,1.741,1.672,2.371c3.484,3.13,4.782,6.585,3.137,11.333c-0.804,2.322-0.4,5.177-0.115,7.743
		c1.344,12.094-2.669,23.2-6.025,34.46c-2.662,8.934-5.588,17.677-12.563,24.367c-0.194,0.187-0.309,0.457-0.456,0.691
		c-4.729,7.538-3.816,9.926,4.4,13.507c6.549,2.855,12.701,6.722,19.396,9.106c4.531,1.613,9.702,1.923,14.582,1.901
		c3.808-0.017,5.886,0.936,7.145,4.6c0.874,2.544,2.466,4.897,4.022,7.139c4.086,5.885,8.363,11.637,12.472,17.507
		c0.598,0.854,0.638,2.082,1.017,3.107c2.331,6.311,4.73,12.597,6.997,18.93c0.516,1.442,0.594,3.041,0.88,4.566
		c0.959,5.11,1.333,10.421,2.998,15.29c4.207,12.303,3.907,24.544,0.207,36.711c-3.01,9.901-7.453,12.307-17.784,11.036
		c-1.737-0.214-3.561-0.121-5.289,0.167c-0.735,0.123-1.713,1.008-1.913,1.73c-0.788,2.859-1.337,5.785-1.922,8.698
		c-0.465,2.311-0.53,4.757-1.334,6.936c-2.518,6.82-0.274,13.763-0.767,20.631c-0.22,3.076-1.019,5.069-3.743,6.736
		c-3.878,2.374-7.64,5.051-11.005,8.093c-1.438,1.3-2.417,3.827-2.466,5.825c-0.298,12.038-0.388,24.085-0.3,36.127
		c0.059,8.019,0.458,16.037,0.85,24.049c0.168,3.438,0.476,6.901,1.121,10.276c1.226,6.419-0.255,8.83-6.469,10.775
		c-1.206,0.378-2.209,2.169-2.789,3.529c-0.449,1.054-0.256,2.477-0.065,3.691c2.563,16.345-5.273,30.479-9.616,45.347
		c-2.319,7.939-4.796,15.831-7.202,23.744C303.8,500.799,250.284,500.799,196.767,500.799z M251.354,196.563
		c0.011,0.468,0.022,0.937,0.033,1.405c-2.339,0.111-4.678,0.222-7.016,0.333c-0.026,0.215-0.052,0.43-0.077,0.646
		c2.899,1.157,5.798,2.313,8.696,3.47c-0.072,0.249-0.145,0.497-0.217,0.745c-2.491,0.519-4.982,1.039-7.473,1.558
		c0,0.554,0,1.108,0,1.663c7.112,1.248,14.223,2.495,21.335,3.743c-0.071,0.367-0.143,0.734-0.214,1.102
		c-5.12,0.344-10.24,0.687-15.234,1.021c1.542,2.809,2.771,5.045,4.208,7.66c-3.083-0.599-5.984-1.163-8.885-1.727
		c-0.052,0.209-0.104,0.418-0.156,0.628c4.704,2.138,9.407,4.276,14.111,6.413c-0.097,0.293-0.193,0.586-0.29,0.879
		c-1.423,0.293-2.846,0.587-4.269,0.881c0.031,0.178,0.063,0.356,0.094,0.534c1.926,0,3.853,0,6.229,0
		c-1.534,2.29-2.688,4.012-4.171,6.225c1.295,0,2.576,0.004,3.856-0.001c5.663-0.021,11.325-0.021,16.987-0.086
		c1.352-0.016,3.818-0.083,3.865-0.404c0.242-1.666,0.238-3.564-0.361-5.118c-2.3-5.963-5.973-11.63-7.045-17.772
		c-1.393-7.973-4.066-14.767-9.634-20.563c-2.083-2.168-3.31-5.747-5.756-6.857c-5.729-2.602-11.92-4.24-18.019-5.93
		c-1.256-0.348-2.92,0.777-4.397,1.223c0.056,0.401,0.112,0.802,0.168,1.203c10.231,4.948,20.463,9.896,30.695,14.845
		c-0.21,0.47-0.421,0.939-0.631,1.409c-0.999-0.281-2.025-0.49-2.992-0.856c-4.383-1.657-8.705-3.499-13.155-4.944
		c-1.084-0.353-3.609,0.391-3.681,0.889c-0.207,1.438,0.283,3.11,0.936,4.482C249.215,195.932,250.504,196.143,251.354,196.563z
		 M325.96,423.088c1.067,1,1.364,1.519,1.654,1.515c7.82-0.104,16.042,1.144,23.308-0.938c4.387-1.258,8.221-1.675,12.481-1.403
		c4.032,0.259,8.069,0.449,12.219,0.677c-0.214-2.419-0.729-3.98-0.398-5.335c0.87-3.563-1.004-4.136-3.801-4.009
		c-6.608,0.301-13.215,0.621-19.824,0.9c-1.602,0.068-3.209,0.011-5.234,0.011c0.296-2.104,0.497-3.536,0.694-4.941
		c-7.077-3.803-7.048-3.768-12.229,0.466c-0.563,0.461-1.933,0.59-2.524,0.223c-1.206-0.748-2.168-1.911-3.117-3.003
		c-0.075-0.088,0.656-1.279,1.138-1.386c4.859-1.071,9.567-4.212,14.794-1.019c0.731,0.447,2.102-0.152,3.177-0.267
		c-0.006-0.563-0.012-1.126-0.018-1.688c-4.123-0.391-8.378-1.61-12.336-0.974c-5.648,0.909-5.503,1.482-6.258-4.073
		c-0.129-0.95-0.752-1.995-1.47-2.633c-0.33-0.292-1.498,0.176-2.187,0.507c-1.51,0.728-2.957,1.588-5.066,2.743
		c4.048,4.351,4.804,10.553,4.52,17.388c-1.141,0.356-2.645,0.827-3.848,1.202c3.675,0.679,7.562,1.398,11.449,2.116
		c-0.042,0.487-0.084,0.976-0.127,1.464c-1.133,0.249-2.298,0.405-3.391,0.776C328.502,421.769,327.513,422.35,325.96,423.088z
		 M371.797,355.873c0.648-3.499,1.441-5.513-1.134-7.695c-1.913-1.621-2.731-4.457-6.028-4.327
		c-0.429,0.018-1.302-1.686-1.325-2.608c-0.09-3.591-2.335-5.166-5.109-6.844c-1.725-1.044-3.208-3.126-3.909-5.064
		c-0.981-2.712-6.045-7.604-8.909-7.782c-3.173-0.198-6.34-0.502-9.094-0.726c1.167,2.156,2.653,4.906,4.218,7.8
		c-2.885,0.801-4.635,1.286-6.119,1.697c1.001,2.282,1.643,3.746,2.285,5.209c-1.848,0.481-3.69,1.32-5.546,1.354
		c-2.277,0.042-4.566-0.588-6.851-0.928c0.679,1.5,1.501,2.271,2.477,2.641c7.283,2.759,14.59,5.454,21.909,8.115
		c0.61,0.223,1.377,0.136,2.051,0.045c4.729-0.639,8.492,1.03,12.094,4.114C365.183,352.908,368.354,354.013,371.797,355.873z
		 M339.483,223.679c-0.803-0.74-1.893-1.745-3.786-3.491c0.597-1.546,1.722-4.32,2.746-7.129c4.009-11,8.089-21.975,11.917-33.037
		c1.288-3.722,0.568-4.679-1.787-5.34c-2.892,4.303-5.729,8.301-8.302,12.463c-0.979,1.584-1.801,3.511-1.928,5.335
		c-0.586,8.398-2.697,16.063-7.962,22.944c-5.158,6.741-4.848,11.4,0.077,18.503c1.87,2.699,4.477,1.919,6.591,0.612
		c2.079-1.284,2.059-3.207-0.477-5.637c0.627,3.641,0.353,5.851-3.937,3.289C334.881,229.399,336.89,226.902,339.483,223.679z
		 M351.237,207.967c-0.572,2.821-0.542,2.807,1.744,7.599c0.215,0.45-0.051,1.433-0.441,1.798c-0.646,0.606-1.575,0.911-1.949,1.109
		c0.461,2.629,0.851,4.852,1.19,6.785c0.609-1.265,1.264-2.622,1.918-3.979c1.212,1.741,2.425,3.482,4.085,5.865
		c0-2.686,0.678-5.297-0.156-7.27c-1.313-3.106-1.765-3.185-0.318-6.581c0.141,0.469,0.23,0.856,0.372,1.224
		c0.524,1.357,1.066,2.708,1.602,4.062c1.593-0.859,3.589-1.407,4.602-2.715c0.472-0.611-0.622-3.041-1.622-4.012
		c-0.973-0.944-2.811-0.928-4.118-1.619c-0.835-0.442-2.042-1.468-1.975-2.12c0.385-3.783,0.977-7.556,1.728-11.287
		c1.062-5.27,2.466-10.474,3.393-15.764c0.221-1.263-0.868-2.754-1.355-4.141c-0.916,0.979-2.17,1.805-2.695,2.961
		c-5.226,11.524-10.332,23.103-15.686,35.147c1.077,0.499,2.255,1.044,3.424,1.585c1.252-3.407,2.29-6.23,3.418-9.3
		C349.15,207.488,350.194,207.728,351.237,207.967z M337.658,383.155c-4.182,5.902-0.651,9.884,2.068,12.947
		c1.063,1.196,6.003-1.05,9.177-1.729c-0.067-0.438-0.134-0.876-0.201-1.313c-1.157-0.091-2.543,0.191-3.422-0.35
		c-2.008-1.234-4.027-2.668-5.453-4.484c-0.372-0.474,1.447-2.631,2.208-4.043c0.405-0.75,0.701-1.557,1.081-2.419
		c-9.65-2.084-17.568-0.863-20.752,3.219C327.028,384.426,331.514,383.89,337.658,383.155z M362.76,191.647
		c-0.407,0.362-0.866,0.657-1.173,1.065c-1.448,1.927-0.75,12.342,1.18,13.431c1.292,0.729,3.185,0.792,4.692,0.517
		c0.488-0.089,0.881-2.207,0.848-3.383C368.177,198.669,366.24,194.845,362.76,191.647z M319.803,243.723
		c-0.283-0.971-0.274-1.339-0.44-1.454c-2.871-1.992-16.205-1.73-18.666,0.42c-1.722,1.505-1.536,2.861,0.715,3.595
		c1.031,0.335,2.229,0.198,3.224,0.595C310.427,249.19,314.196,243.042,319.803,243.723z M253.589,165.771
		c-0.217,0.486-0.435,0.973-0.651,1.46c-4.568-1.095-9.137-2.189-13.705-3.284c-0.133,0.472-0.266,0.945-0.399,1.417
		c7.348,2.225,14.696,4.45,22.915,6.939c-4.192-8.204-11.181-10.71-18.372-12.938C246.78,161.501,250.185,163.637,253.589,165.771z
		 M375.758,408.308c-5.423-2.282-10.659-4.587-15.996-6.627c-0.817-0.313-2.1,0.594-3.168,0.937
		c0.702,0.862,1.237,2.021,2.139,2.526c2.366,1.327,5.284,1.914,7.268,3.624C369.582,411.854,371.926,412.091,375.758,408.308z
		 M246.477,338.08c-4.916,8.705-4.43,17.499,2.579,18.896C248.254,351.106,247.424,345.021,246.477,338.08z M365.086,389.305
		c-1.854,5.577-0.215,10.129,4.444,12.504c0.808,0.413,1.958,0.157,2.95,0.21c-0.015-1.277,0.474-2.91-0.133-3.766
		C370.163,395.173,367.61,392.355,365.086,389.305z M348.167,229.666c-1.378,0-3.606-0.282-5.698,0.13
		c-0.925,0.182-2.083,1.717-2.189,2.738c-0.091,0.875,1.08,2.58,1.846,2.673c1.019,0.125,2.351-0.775,3.233-1.579
		c0.638-0.582,0.764-1.725,1.118-2.617c0.247,0.064,0.494,0.128,0.74,0.192c0.159,1.575,0.317,3.149,0.497,4.933
		c2.05,0.235,3.933,0.451,5.815,0.667c0.14-2.035,0.28-4.07,0.44-6.397c-0.831,0.163-1.994,0.314-1.989,0.4
		c0.083,1.441,0.311,2.875,0.506,4.31c-0.33,0.186-0.661,0.372-0.99,0.558C350.565,233.992,349.634,232.312,348.167,229.666z"/>
	<path fill-rule="evenodd" d="M583.329,162.881c-2.338,1.267-4.57,2.821-7.039,3.735c-3.74,1.383-7.27,0.599-10.541-1.814
		c-2.372-1.749-4.848-2.669-5.645,1.659c-1.049-0.577-2.103-1.157-4.288-2.359c1.667,6.557,3.48,11.915,4.328,17.422
		c1.406,9.13,2.529,18.335,3.079,27.551c0.229,3.854,1.577,5.766,5.455,7.122c-0.573-5.134-1.089-9.863-1.632-14.589
		c-0.393-3.416-0.38-3.348,2.996-4.79c0.553-0.237,0.728-1.357,1.162-2.239c-6.73-2.228,0.064-6.771-2.345-9.944
		c-0.72,0.575-1.605,1.28-3.488,2.783c1.036-3.769,1.796-6.538,2.644-9.625c3.593,5.184,4.389-0.567,6.755-1.921
		c-0.559,7.482-5.267,14.146-0.982,21.913c2.185-1.468,4.553-3.058,7.085-4.759c0.175,1.473,0.339,2.852,0.616,5.18
		c0.976-2.339,1.572-3.77,2.68-6.424c1.165,2.95,1.839,4.657,2.608,6.604c-1.622,0.249-2.944,0.452-4.885,0.75
		c0.811,1.457,1.426,2.563,1.837,3.303c1.483-0.102,3.488-0.572,3.664-0.193c0.849,1.829,1.725,3.918,1.604,5.854
		c-0.146,2.349,0.727,3.631,3.229,3.412c0.849-0.075,2.529,0.554,2.527,0.855c-0.031,6.399,5.996,8.478,8.972,12.69
		c0.75,1.061,2.062,1.854,3.276,2.431c3.904,1.854,6.298,1.148,7.257-3.021c1.916-8.329,3.267-16.791,4.749-25.215
		c1.197-6.806,2.187-13.648,3.381-20.455c0.663-3.778,0.223-6.952-2.76-9.859c-1.412-1.376-2.596-4.009-2.352-5.873
		c0.813-6.221,2.32-12.351,3.633-18.876c1.199,3.697,2.423,6.723,3.129,9.865c0.649,2.888,2.95,6.024-0.453,8.79
		c-0.232,0.189-0.198,0.771-0.199,1.17c-0.01,11.589-0.008,23.178-0.008,34.768c0.605,0.062,1.211,0.124,1.817,0.186
		c0.68-3.641,1.139-7.341,2.1-10.907c1.085-4.032,2.662-7.93,3.934-11.916c0.329-1.031,0.645-2.247,0.41-3.246
		c-1.148-4.886-0.895-9.535,1.368-14.108c0.635-1.284,0.539-2.93,1.158-4.391c3.138,8.353-0.681,16.696-0.022,24.766
		c3.154-5.381,6.463-11.026,9.772-16.671c0.374,0.2,0.747,0.401,1.121,0.601c-2.469,5.293-4.938,10.586-7.721,16.55
		c1.379-0.753,2.174-1.187,2.969-1.622c-3.191,4.411-5.74,8.42,1.84,10.8c-2.084,2.888-4.302,5.962-7.013,9.719
		c2.897,0.22,5.126,0.389,8.326,0.632c-2.758,1.151-4.813,1.829-6.673,2.858c-0.987,0.546-1.635,1.704-2.437,2.585
		c1.22,0.9,2.33,2.191,3.695,2.582c1.18,0.338,2.653-0.347,5.169-0.782c-2.741,1.851-5.275,2.683-6.076,4.348
		c-0.8,1.665,0.133,4.163,0.356,6.905c0.288,0.055,1.374,0.259,3.064,0.579c-1.542,0.872-2.568,1.453-3.353,1.897
		c0,1.96,0,3.622,0,5.288c5.534,0,11.421-0.424,17.216,0.129c5.013,0.478,9.966,1.894,14.854,3.23
		c2.545,0.697,3.432,2.49,2.758,5.472c-1.475,6.528-2.399,13.179-3.613,19.768c-0.25,1.36-0.784,2.669-1.492,5.009
		c-1.113-2.913-1.853-4.645-2.439-6.427c-0.97-2.945-2.549-3.733-5.686-2.688c-3.285,1.094-2.459,2.606-1.841,5.032
		c0.35,1.372-1.116,3.206-1.998,5.416c3.525,3.025,0.893,7.891,1.791,12.185c0.207,0.987,0.889,1.874,1.353,2.808
		c0.618-0.347,1.235-0.694,3.029-1.7c-2.063,3.48-3.493,6.194-5.215,8.707c-1.399,2.041-2.878,4.217-4.832,5.627
		c-1.417,1.023-3.668,1.211-5.547,1.211c-3.991,0.001-7.981-0.391-11.975-0.539c-0.428-0.016-0.876,0.51-0.848,0.492
		c0.442,2.208,1.6,4.409,0.965,5.777c-0.699,1.508-3.045,2.252-5.05,3.578c3.469,2.796,6.31,1.151,8.996,0.21
		c5.379-1.885,6.46-1.47,6.606,4.296c0.178,7.043-0.389,14.103-0.301,21.149c0.074,5.928,0.632,11.849,0.957,17.774
		c0.098,1.785,0.44,3.628,0.143,5.354c-1.308,7.596-3.008,15.128-4.154,22.745c-0.558,3.704-0.075,7.552-0.32,11.318
		c-0.167,2.584-0.195,5.455-1.366,7.611c-1.01,1.858-3.612,2.809-5.39,4.306c-1.976,1.663-3.815,3.488-5.659,5.192
		c3.795,1.621,4.932,3.7,3.387,9.028c-1.606,5.539-0.901,10.722-0.145,16.303c0.732,5.401-0.866,11.127-1.494,16.704
		c-0.386,3.428-0.876,6.843-1.311,10.266c-0.052,0.411,0.105,0.928-0.091,1.229c-5.264,8.134-1.753,17.157-2.567,25.734
		c-0.289,3.045-0.101,5.852-2.698,8.306c-2.345,2.214-1.365,3.575,4.311,4.996c-3.027,0.913-4.957,1.496-6.576,1.984
		c-0.257,2.658-0.504,5.217-0.751,7.775c-45.753,0-91.506,0-137.259,0c-1.796-11.702-3.263-23.467-5.471-35.09
		c-2.736-14.405-9.432-28.036-7.983-43.264c1.034-10.86,1.605-21.764,2.497-32.639c0.707-8.612,2.63-17.276,2.098-25.797
		c-0.539-8.631,1.106-16.694,2.588-24.936c0.195-1.084,0.5-2.229,0.34-3.283c-1.873-12.356,2.19-24.088,3.626-36.1
		c0.868-7.26,1.128-14.602,1.386-21.916c0.043-1.219-1.014-3.082-2.087-3.643c-13.471-7.043-19.363-18.848-21.103-33.239
		c-0.771-6.382-1.137-12.813-1.739-19.217c-0.075-0.797-0.234-1.912-0.769-2.284c-2.865-1.991-2.297-4.588-1.605-7.296
		c3.219-12.584,6.509-25.151,9.607-37.765c2.995-12.19,12.493-19.231,21.052-27.024c1.935-1.761,4.01-3.468,6.285-4.72
		c1.447-0.797,3.369-0.83,5.099-0.997c3.08-0.298,6.288,0.011,9.245-0.726c10.242-2.551,20.378-5.527,30.6-8.172
		c5.31-1.374,6.489-3.566,3.205-7.772c-4.304-5.512-7.846-11.313-9.94-18.047c-0.611-1.964-2.426-3.554-3.9-5.61
		c2.43-3.447,0.417-6.581-1.013-10.358c-4.82-12.731-11.78-25.469-2.891-39.393c5.482-8.587,12.186-15.065,22.484-17.7
		c5.407-1.383,10.22-4.472,16.296-3.693c14.726,1.888,26.717,12.788,29.203,27.487c0.929,5.493,2.951,11.029,0.393,16.711
		c-0.326,0.724,0.848,2.075,1.217,3.172c0.593,1.76,1.406,3.527,1.55,5.336c0.159,2.011-0.71,3.341-3.31,2.956
		c-1.216-0.181-2.599,0.763-4.319,1.334c-0.255-0.444-0.874-1.155-1.104-1.975c-1.928-6.875-7.308-11.494-11.208-17.063
		c-0.677-0.966-2.631-1.619-3.83-1.42c-0.74,0.123-1.513,2.087-1.67,3.303c-0.555,4.291-0.413,8.186,4.679,10.243
		c1.377,0.557,2.224,3.237,2.676,5.098c0.905,3.729,1.398,7.56,1.997,11.359c0.141,0.895,0.195,1.873-0.011,2.742
		c-0.889,3.759,2.484,7.775,6.336,6.969c1.314-0.275,2.279-2.216,3.94-3.958c0.336,6.239,0.726,12.393,0.979,18.553
		c0.205,4.976,0.029,9.979,0.506,14.924c0.12,1.253,1.909,2.621,3.242,3.409c1.545,0.913,3.649,0.913,5.133,1.885
		c5.087,3.333,6.783,2.65,8.52-4.862c0.479,1.735,0.937,2.504,0.843,3.2c-0.646,4.815-3.223,6.965-8.255,8.649
		c-2.568,0.86-4.664,3.13-7.235,4.947c0.262,0.659,0.644,1.625,0.979,2.47c-1.006,3.199-7.509-0.691-6.18,5.659
		c-3.456,0-6.691,0-9.927,0c-0.002,0.575-0.005,1.15-0.008,1.725c2.484,0,4.968,0,7.452,0L583.329,162.881z M505.486,188.158
		c-4.892-2.634-9.784-5.269-14.675-7.902c-0.152,0.285-0.304,0.569-0.456,0.854c6.196,4.053,12.392,8.106,18.588,12.159
		c-0.25,0.41-0.5,0.819-0.75,1.229c-4.812-2.42-9.006-6.394-14.641-6.901c0.148,2.56,0.256,4.429,0.378,6.54
		c-1.725,0-3.754,0-6.188,0c6.196,3.88,11.972,7.497,17.747,11.113c-0.148,0.255-0.296,0.51-0.445,0.765
		c-6.966-2.715-13.933-5.43-20.898-8.144c-0.128,0.302-0.256,0.604-0.383,0.906c2.549,1.479,5.098,2.959,8.286,4.809
		c-4.695,0.774-10.384-2.762-11.688,4.847c1.425,0.431,2.866,0.771,4.236,1.295c6.627,2.539,13.235,5.127,19.85,7.698
		c-3.776-1.009-5.258,2.372-7.423,4.181c-0.528,0.44,0.058,2.804,0.708,3.959c2.224,3.953,2.192,4.071-2.331,4.911
		c-0.855,0.159-1.556,1.148-2.328,1.753c0.562,0.695,1.078,1.948,1.693,1.998c4.884,0.396,9.786,0.565,15.028,0.82
		c0.24-5.896,2.637-12.107-3.878-16.386c1.586,0.694,3.172,1.388,6.139,2.688c-0.569-3.683-0.986-6.387-1.466-9.497
		c0.252-0.708,0.976-2.027,1.179-3.422c1.141-7.817-1.747-14.416-6.432-20.429c0.763,0.188,1.527,0.375,2.313,0.567
		c0.601-7.943-9.454-16.204-18.6-14.877c1.5,1.288,2.728,2.316,3.926,3.375C497.15,180.758,501.316,184.46,505.486,188.158z
		 M521.755,208.046c0.433,0.038,0.866,0.077,1.299,0.115c0.945-6.368,1.889-12.737,2.834-19.105
		c1.214,4.062-0.312,10.117,8.002,8.877c-0.038,0.486-0.075,0.973-0.113,1.459c-1.89,1.066-3.778,2.132-5.894,3.326
		c2.326,2.14,3.526,3.246,4.907,4.516c-4.775,4.962,1.104,5.437,3.563,7.6c-1.302,0.8-2.32,1.425-3.13,1.923
		c0.197,1.754,0.749,3.362,0.467,4.808c-0.714,3.66-1.67,7.109,2.994,9.06c0.681,0.285,0.769,2.18,0.978,3.357
		c0.476,2.673,0.856,5.363,1.275,8.046c1.204-0.463,1.779-1.012,1.669-1.31c-2.727-7.419,4.768-10.586,6.667-16.063
		c0.077-0.222,0.621-0.283,1.388-0.604c0,5.409-0.033,10.501,0.016,15.593c0.02,2.131-0.563,4.88,2.918,4.772
		c3.265-0.101,4.354-2.419,4.607-5.299c0.373-4.224-0.016-8.687,1.231-12.633c4.72-14.936,4.547-29.774-0.734-44.322
		c-2.008-5.533-6.012-10.343-9.106-15.482c-0.334,0.234-0.668,0.469-1.002,0.703c-0.515,1.859-1.029,3.719-1.506,5.439
		c-2.269-2.057-4.034-4.401-6.383-5.63c-4.444-2.327-8.464-4.65-7.915-11.113C522.511,164.942,516.757,200.187,521.755,208.046z
		 M592.283,246.808c-1.792,1.404-4.175,2.911-6.021,4.915c-0.624,0.677-0.392,3.373,0.316,3.843
		c3.86,2.563,7.806,5.188,12.084,6.874c3.547,1.398,7.025-0.971,8.184-4.428c1.115-3.329-0.443-7.154-4.001-8.506
		C599.792,248.347,596.486,247.849,592.283,246.808z M510.74,157.316c-0.351,5.009-0.721,10.279-1.09,15.549
		c0.459,0.057,0.92,0.113,1.38,0.169c0.531-0.85,1.062-1.7,1.8-2.882c0.425,1.572,0.75,2.776,1.224,4.533
		c0.817-1.242,1.273-1.937,1.921-2.921c0.174,0.801,0.187,1.215,0.352,1.557c0.644,1.332,1.336,2.641,2.011,3.958
		c0.988-1.12,2.6-2.118,2.848-3.383c0.786-4.011,1.175-8.114,1.453-12.199c0.066-0.972-0.902-2.015-1.394-3.024
		c-0.323,0.107-0.646,0.214-0.968,0.321c-0.144,1.474-0.288,2.948-0.432,4.422c-0.277,0.056-0.555,0.112-0.832,0.168
		c-1.086-2.393-2.172-4.785-3.054-6.727C514.297,157.003,512.971,157.12,510.74,157.316z M538.635,251.407
		c-5.356-4.305-10.334-9.332-17.934-9.183c-1.225,0.024-2.711,1.174-3.499,2.232c-0.33,0.442,0.65,2.173,1.372,3.035
		C524.077,254.054,531.184,253.282,538.635,251.407z M664.536,247.839c0.552,0.094,1.104,0.187,1.657,0.28
		c0.104-1.598,0.184-3.198,0.319-4.794c0.201-2.387-0.357-5.322,0.831-7.039c2.385-3.447,0.45-4.75-1.984-6.035
		c-2.621-1.384-6.677-0.053-7.576,2.253c-2.327,5.974,0.028,10.366,6.267,11.395C664.208,245.183,664.372,246.511,664.536,247.839z
		 M505.534,172.274c1.664-13.167-2.199-19.343-11.468-19.337C497.958,159.499,501.746,165.886,505.534,172.274z M549.79,247.261
		c-1.24,1.745-2.479,3.49-3.72,5.234c3.003,1.223,5.977,2.534,9.047,3.558c0.388,0.129,1.793-1.214,1.842-1.936
		C557.123,251.723,552.912,247.765,549.79,247.261z M514.436,244.385c0.36-0.54,0.719-1.081,1.079-1.621
		c-1.713-1.044-3.322-2.367-5.168-3.053c-1.838-0.684-3.913-0.742-5.888-1.048c-1.149-0.178-2.307-0.303-4.474-0.583
		C504.104,244.27,509.897,242.664,514.436,244.385z M564.044,226.569c4.405-0.89,2.154,2.983,3.743,5.641
		c1.067-2.809,1.839-4.837,2.859-7.523c-3.12-0.285-6.171-1.128-8.901-0.523c-1.023,0.228-1.3,3.823-1.911,5.861
		C564.224,231.396,564.74,230.944,564.044,226.569z M502.053,175.413c0.246-0.322,0.492-0.644,0.738-0.966
		c-1.701-5.245-7.667-9.404-13.971-8.828C493.695,169.227,497.874,172.32,502.053,175.413z M586.553,226.479
		c-1.837-1.409-3.555-3.067-3.811-2.866c-1.357,1.068-2.558,2.503-3.295,4.056c-0.155,0.325,2.125,2.578,2.83,2.374
		C583.642,229.648,584.686,228.14,586.553,226.479z M564.123,390.066c0.017-0.511,0.033-1.023,0.051-1.534
		c-4.537-0.322-9.074-0.644-13.611-0.967c-0.029,0.431-0.059,0.86-0.087,1.291C555.024,389.26,559.573,389.663,564.123,390.066z
		 M566.295,405.621c-0.006,0.478-0.012,0.956-0.018,1.434c4.49-0.48,8.98-0.961,13.471-1.441c-0.033-0.399-0.066-0.8-0.1-1.2
		C575.197,404.815,570.746,405.219,566.295,405.621z M598.682,222.607c-0.898,1.585-1.824,2.485-1.652,3.057
		c0.489,1.629,1.424,3.126,2.184,4.674c0.604-0.729,1.817-1.583,1.698-2.163C600.571,226.525,599.688,224.987,598.682,222.607z"/>
	<path fill-rule="evenodd" d="M1137.612,500.799c-0.602-10.769-1.452-21.53-1.739-32.307c-0.301-11.321,0.152-22.663-0.178-33.982
		c-0.118-4.028-1.56-8.018-2.418-12.021c-0.168-0.787-0.871-1.916-0.577-2.275c3.602-4.414,1.259-9.112,0.522-13.548
		c-3.417-20.589-6.783-41.195-10.806-61.67c-2.873-14.622-6.723-29.054-10.253-43.542c-0.332-1.362-1.298-2.735-2.336-3.717
		c-1.071-1.012-3.413-1.28-3.766-2.348c-1.366-4.138-3.045-8.48-2.965-12.716c0.127-6.77,2.725-13.143,6.641-18.732
		c1.272-1.816,3.602-2.854,5.195-4.493c1.171-1.207,1.932-2.812,2.875-4.24c-1.302-0.645-2.555-1.431-3.919-1.888
		c-1.021-0.343-2.206-0.159-3.28-0.389c-5.684-1.21-6.317-2.772-3.485-7.858c2.991-5.371,5.026-11.009,5.222-17.293
		c0.094-2.998,0.558-6.133,1.604-8.925c4.06-10.831,7.878-21.814,12.956-32.167c1.854-3.782,6.853-6.128,10.633-8.825
		c2.898-2.066,6.181-3.585,9.211-5.478c2.512-1.568,4.834-3.198,7.962-1.159c0.493,0.321,2.825-0.803,2.914-1.452
		c0.848-6.121,5.673-9.36,9.443-13.261c6.209-6.425,6.482-10.754-0.145-16.808c-6.933-6.334-9.898-14.508-11.708-23.282
		c-0.438-2.116-0.598-4.632,0.138-6.577c1.571-4.148,1.966-7.259-3.431-8.416c-0.519-0.111-0.993-1.212-1.189-1.935
		c-3.415-12.597-1.887-23.838,8.865-32.631c3.795-3.103,6.454-7.774,11.922-8.501c13.881-1.844,27.391-1.648,39.101,7.597
		c3.345,2.641,6.945,5.131,9.685,8.329c5.373,6.271,4.007,14.022,3.697,21.46c-0.063,1.513-0.406,3.262,0.197,4.506
		c1.604,3.316,0.615,6.169-0.911,9.019c-1.189,2.222-2.796,4.255-3.714,6.572c-0.538,1.354-0.085,3.1-0.082,4.669
		c0.002,1.335,0,2.67-0.48,4.014c-2.06-4.451-3.342-8.95-1.137-13.662c0.934-1.993,0.949-3.783-1.583-3.983
		c-2.623-0.208-3.155-1.707-3.415-3.772c-0.103-0.821-0.084-1.802-0.531-2.405c-1.084-1.458-2.449-3.849-3.626-3.807
		c-1.48,0.054-3.099,1.985-4.27,3.422c-1.281,1.57-1.983,3.599-3.181,5.253c-2.712,3.75-2.528,6.934,0.578,10.371
		c0.977,1.08,2.183,2.504,2.215,3.798c0.213,8.409,6.281,13.488,11.377,20.83c-4.758,4.233-9.856,8.769-15.217,13.538
		c5.943,1.918,11.028,3.925,16.295,5.155c5.25,1.227,10.683,1.673,16.035,2.461c0.177-0.411,0.354-0.821,0.531-1.231
		c0,2.117,0,4.234,0,6.375c6.367,0.425,5.996-7.331,11.304-8.614c-0.102,1.026,0.012,1.726-0.247,2.239
		c-2.784,5.517-5.601,11.018-8.462,16.494c-1.712,3.275-3.712,6.414-5.212,9.778c-0.955,2.142-1.23,4.585-1.811,6.894
		c0.414,0.158,0.827,0.316,1.24,0.474c0.507-0.82,1.13-1.59,1.499-2.467c1.934-4.592,3.306-9.506,5.828-13.739
		c2.702-4.535,6.501-8.41,9.747-12.63c1.104-1.435,2.297-2.929,2.902-4.595c1.284-3.539,3.967-2.011,6.76-2.41
		c-4.46,9.655-8.718,18.872-12.975,28.089c0.434,0.329,0.868,0.658,1.303,0.987c1.74-1.432,3.48-2.863,5.368-4.416
		c-0.7,1.759-1.336,3.352-1.857,4.663c2.103,1.876,3.966,3.54,5.934,5.294c-0.968,1.142-1.666,1.965-2.243,2.645
		c-0.109,0.323-0.229,0.493-0.187,0.577c3.101,5.991-2.107,9.159-4.559,13.203c-2.862,4.723-6.25,9.15-5.879,15.169
		c0.071,1.162-0.967,2.392-1.761,4.199c3.134,0,5.988,0,8.831,0c0.36,1.366,0.727,2.749,1.095,4.143
		c-1.124,0.807-2.271,1.63-3.416,2.453c0.113,0.339,0.228,0.678,0.342,1.016c2.768-0.233,5.534-0.465,9.336-0.786
		c-11.133,4.394-22.107,6.336-32.045,10.965c0.172,0.562,0.344,1.124,0.515,1.686c4.216-0.87,8.433-1.741,12.173-2.512
		c1.498,0.971,2.608,2.19,3.9,2.43c3.487,0.649,5.073,2.124,3.289,5.579c3.172,1.899,6.12,3.663,9.336,5.59
		c-7.696,6.495-15.423,1.912-22.806,1.75c-0.009,6.465,1.874,7.979,7.449,7.333c2.23-0.259,4.614,0.8,6.842,1.638
		c-2.744,1.424-5.196,5.824-4.265,9.525c1.813,7.199,4.18,14.26,6.459,21.85c-0.24,0.152-1.254,0.8-2.977,1.899
		c2.079,4.14,4.152,8.397,6.446,12.533c0.149,0.27,2.38-0.062,2.976-0.718c1.007-1.108,1.48-2.703,2.463-4.656
		c1.105,4.773,0.252,6.799-4.683,10.979c-2.528,2.144-3.876,4.123-0.027,7.146c-6.487,0.387-6.531,5.155-7.541,9.171
		c-0.618,2.457,0.06,4.385,3.023,3.901c6.884-1.122,10.122,2.191,11.818,8.493c0.973,3.616,4.156,6.783,1.427,10.84
		c-0.207,0.307-0.564,0.512-1.409,1.252c0.819-7.215-5.924-7.444-9.29-11.955c-0.752,2.858-1.293,4.916-2.003,7.616
		c-1.854-1.6-3.592-3.099-5.33-4.597c-0.452,0.027-0.903,0.056-1.354,0.083c2.432,6.827,2.35,13.419-1.07,19.644
		c-0.697,0.06-1.822,0.156-2.948,0.254c1.186,1.547,2.371,3.094,3.724,4.858c4.369-4.789-0.293-11.683,5.811-15.593
		c-0.262,2.667-0.471,4.793-0.704,7.174c2.01,1.301,3.78,1.571,5.538-0.753c1.273-1.685,2.881-3.117,4.34-4.662
		c0.314,0.206,0.63,0.412,0.946,0.618c-2.636,6.909-5.764,13.678-7.767,20.765c-2.01,7.115-2.897,14.547-4.916,21.751
		c-1.634-7.573,1.809-14.635,2.399-21.967c-0.346-0.085-0.692-0.169-1.039-0.254c-0.437,1.869-0.883,3.735-1.306,5.607
		c-0.903,4.007-1.943,7.989-2.646,12.031c-0.646,3.72-2.457,4.596-5.768,3.077c-0.426-0.196-1.02-0.026-2.852-0.026
		c4.146,3.545,2.589,10.111,10.304,10.576c-2.686,1.281-4.33,2.066-5.974,2.852c0.083,0.394,0.166,0.787,0.249,1.18
		c2.093,0.216,4.186,0.43,7.182,0.738c-3.303,2.774-6.096,5.123-9.095,7.644c1.616,0.155,3.698,0.746,5.666,0.483
		c10.257-1.374,20.515-2.796,30.706-4.578c3.273-0.572,4.813-0.042,4.781,3.376c-0.021,2.173,0.504,4.592-0.258,6.48
		c-5.348,13.268-3.133,26.948-2.746,40.567c0.164,5.771-0.433,11.565-0.737,17.346c-0.146,2.754-0.417,5.502-0.631,8.252
		C1226.899,500.799,1182.257,500.799,1137.612,500.799z M1204.695,276.021c2.563,0,4.58,0,6.505,0
		c-1.353-2.354-2.546-4.431-3.228-5.619c6.976-6.296,13.491,0.648,20.228-0.272c0-0.812,0.092-1.13-0.019-1.347
		c-0.246-0.48-0.563-0.934-0.905-1.356c-4.359-5.395-11.602-3.222-16.815-6.385c-0.093-0.057-0.304-0.022-0.401,0.049
		c-4.116,2.986-10.07,4.404-9.634,11.669c1.905,0,3.836,0,5.861,0C1205.728,273.905,1205.345,274.691,1204.695,276.021z
		 M1138.106,222.221c-0.71,1.679-1.002,2.225-1.169,2.806c-0.169,0.586-0.214,1.208-0.348,2.028
		c8.008-3.846,11.758-11.828,8.641-17.82c-7.832,3.958-13.914,11.745-13.211,17.426
		C1133.827,225.342,1135.486,224.131,1138.106,222.221z M1114.141,280.257c-0.124,0.378-0.248,0.756-0.372,1.133
		c2.694,3.406,5.306,6.883,8.15,10.157c0.588,0.676,2.238,1.095,3.068,0.775c2.79-1.074,5.431-2.535,9.303-4.419
		C1126.908,285.102,1120.524,282.68,1114.141,280.257z M1208.34,93.69c-0.052-4.291-4.665-10.378-8.064-10.972
		c-1.143-0.199-2.62,0.414-3.644,1.103c-0.513,0.345-0.792,1.999-0.421,2.538c1.938,2.803,3.925,5.629,6.311,8.036
		c0.942,0.951,2.963,1.091,4.486,1.075C1207.583,95.464,1208.142,93.974,1208.34,93.69z M1130.414,217.652
		c3.92-3.796,7.812-7.566,11.965-11.589c-1.248-2.234-3.267-1.725-5.467-0.306C1130.734,209.738,1128.492,213.742,1130.414,217.652z
		 M1190.256,275.624c2.175,1.493,3.486,2.394,5.352,3.674c0-2.479,0-4.132,0-6.264
		C1193.884,273.867,1192.5,274.538,1190.256,275.624z M1235.646,190.165c0.499,0.188,0.998,0.375,1.496,0.563
		c1.229-3.946,2.459-7.892,3.687-11.838c-0.292-0.101-0.585-0.202-0.878-0.303C1238.517,182.446,1237.082,186.305,1235.646,190.165z
		 M1240.762,383.751c-1.238-3.828-3.512-4.106-7.663-1.188C1235.745,382.974,1237.974,383.318,1240.762,383.751z"/>
	<path fill-rule="evenodd" d="M726.668,500.799c-1.475-15.282-9.636-28.402-13.851-42.801c-2.599-8.876-5.478-17.671-8.011-26.564
		c-0.669-2.35-0.782-4.939-0.711-7.407c0.54-18.935,0.748-37.896,2.021-56.784c0.494-7.33,1.556-14.466,0.086-21.802
		c-0.606-3.028-0.101-6.28-0.101-10.017c4.546,4.061,8.508,7.6,12.725,11.367c0.435-1.109,0.591-1.438,0.565-1.454
		c-9.259-5.417-11.077-15.423-14.654-24.22c-3.026-7.441-5.285-15.195-7.881-22.806c-2.831,1.056-2.836,1.106,0.001,12.083
		c-5.074-2.106-9.629-3.477-13.557-5.874c-1.684-1.027-3.014-4.252-2.882-6.378c0.937-15.158,2.302-30.291,3.505-45.435
		c0.175-2.205,0.569-4.475,0.249-6.625c-1.08-7.243,2.672-13.125,5.215-19.313c1.157-2.815,7.449-3.887,10.011-2.171
		c7.749,5.194,12.424,12.792,16.522,20.875c1.381,2.724,2.946,5.355,4.833,8.761c1.126-2.327,1.73-3.574,2.491-5.148
		c1.05,2.909,1.941,5.379,3.061,8.479c0.644-4.778,1.184-8.789,1.723-12.8c0.585,0.019,1.17,0.037,1.756,0.054
		c0,2.007,0.099,4.021-0.019,6.021c-0.355,6.03-0.257,11.803,6.542,14.641c0.435,0.181,0.995,0.818,0.975,1.218
		c-0.222,4.301,3.167,4.144,6.134,4.733c-0.47,1.273-0.868,2.352-1.188,3.22c2.836,1.976,5.442,3.79,8.339,5.808
		c-1.345,0.776-2.501,1.444-4.092,2.363c3.59,3.438,6.825,2.414,10.05,0.613c3.422-1.911,4.821-1.392,5.72,2.409
		c0.563,2.386,0.922,4.819,1.372,7.232c0.429,0.033,0.856,0.066,1.284,0.1c0.063-1.585,0.537-3.297,0.096-4.727
		c-0.797-2.58-0.313-4.241,2.44-4.41c7.277-0.449,14.565-0.74,21.854-0.977c2.815-0.091,6.101,1.054,5.549-3.988
		c-0.12-1.101,1.682-2.411,2.316-3.252c-2.989-1.267-5.618-2.385-8.252-3.494c-1.013-0.427-2.002-1.054-3.058-1.208
		c-6.186-0.901-9.697-4.975-12.53-10.07c-2.466-4.434-3.698-8.892-3.278-14.143c0.296-3.693-1.016-7.569-1.95-11.277
		c-0.341-1.35-1.671-2.45-1.851-2.698c-1.093-3.241-1.673-5.891-2.847-8.246c-2.374-4.764-6.885-5.73-11.725-6.266
		c-2.792-0.309-5.463-1.605-8.252-2.085c-2.447-0.42-4.983-0.321-7.707-0.464c-0.556-4.417-3.911-6.275-13.17-5.914
		c0.948,1.34,2.111,2.314,2.354,3.481c0.387,1.852,0.283,3.847,0.041,5.738c-0.032,0.246-2.518,0.742-3.161,0.232
		c-1.458-1.156-2.281-3.107-3.729-4.283c-1.318-1.071-3.12-1.546-5.703-2.745c5.951-2.886,11.054-5.496,16.278-7.836
		c2.688-1.204,3.745-3.004,1.441-4.917c-12.958-10.752-12.855-25.741-12.889-40.384c-0.036-15.401,3.183-30.242,11.807-43.378
		c6.181-9.417,14.828-15.525,26.295-15.782c9.688-0.217,17.988,4,25.767,9.87c11.353,8.568,14.436,21.245,17.746,33.718
		c2.867,10.8,4.592,21.901,6.88,32.857c2.189,10.483,2.51,21.821,11.615,27.227c0,6.227-0.19,10.979,0.043,15.711
		c0.401,8.137,1.713,16.282,1.445,24.386c-0.282,8.54-2.091,17.015-7.926,23.87c-0.624,0.733-2.16,0.81-3.305,0.961
		c-2.964,0.392-6.358,0.021-5.973,4.758c0.067,0.819-0.997,1.729-1.694,2.848c0.812,0.521,1.673,1.072,2.882,1.848
		c-0.867,1.846-1.832,3.647-2.553,5.542c-0.35,0.92-0.669,2.324-0.22,2.941c0.422,0.582,2.078,0.864,2.834,0.512
		c4.303-2.006,8.462-4.318,12.752-6.352c1.281-0.608,2.828-0.653,5.303-1.181c0.633-4.111,2.257-9.089,1.967-13.951
		c-0.619-10.339-2.087-20.585-0.677-31.008c0.497-3.666-0.473-7.53-0.372-11.367c3.125,4.744,4.069,9.953,3.548,15.529
		c-0.502,5.364-0.994,10.731-1.33,16.107c-0.087,1.391,0.425,2.817,0.729,4.624c1.988-3.224,3.648-5.915,5.309-8.606
		c0.392,0.144,0.783,0.287,1.175,0.432c-1.139,4.2-2.275,8.401-3.344,12.345c4.807-0.985,9.296-1.904,13.785-2.824
		c0.158,0.549,0.317,1.096,0.476,1.644c-1.235,0.573-2.471,1.146-3.719,1.725c0,1.863,0,3.732,0,6.395
		c3.108-0.993,5.996-1.916,8.952-2.86c-0.199,5.604,5.538,10.85,10.094,8.825c0.27,2.598,0.775,5.042,0.73,7.478
		c-0.156,8.571-0.563,17.138-0.753,25.708c-0.106,4.743-3.375,9.171-7.942,10.371c-0.267,0.069-0.556,0.066-0.816,0.15
		c-3.24,1.038-7.573,1.195-9.373,3.409c-1.488,1.833,0.184,6.1,0.133,9.283c-0.035,2.172-0.076,4.639-1.072,6.446
		c-3.077,5.591-2.19,11.073-0.768,16.826c1.383,5.594,2.097,11.35,3.338,16.983c1.583,7.191,3.492,14.311,5.086,21.501
		c1.011,4.561,2.193,9.168,2.431,13.799c0.424,8.229,1.325,16.255,4.925,23.795c0.588,1.229,0.988,2.607,1.177,3.959
		c1.814,12.963,3.697,25.918,5.288,38.909c1.04,8.496,1.628,17.047,2.42,25.572c-20.242,0-40.485,0-60.727,0
		c-0.809-1.744-1.818-3.425-2.393-5.242c-3.949-12.521-7.782-25.079-11.732-37.6c-0.437-1.386-1.371-2.615-2.075-3.916
		c-0.356,0.113-0.714,0.227-1.071,0.34c-0.897,15.473-1.796,30.946-2.694,46.418C763.271,500.799,744.969,500.799,726.668,500.799z
		 M824.915,354.901c0.377,6.538-1.952,5.412-5.297,4.055c-4.434-1.799-6.643-5.076-8.34-9.154c-0.921-2.212-2.215-4.611-5.19-3.405
		c-3.436,1.393-6.209,0.682-9.356-1.031c-3.634-1.979-7.692-3.186-12.192,0.598c3.269,3.167,6.304,6.107,9.339,9.048
		c-0.347,0.534-0.692,1.069-1.039,1.604c-3.894-1.466-7.834-2.825-11.668-4.436c-2.779-1.167-5.241-3.052-8.179,0.041
		c-0.861,0.907-3.107,0.577-4.728,0.662c-1.286,0.067-2.585-0.097-4.395-0.184c1.228,4.095,4.282,4.921,7.033,5.663
		c5.717,1.542,11.543,2.677,17.308,4.043c3.862,0.914,8.479,0.925,11.369,3.146c4.729,3.636,9.311,3.902,14.916,2.876
		c-3.948-1.32-7.507-2.509-11.064-3.698c0.124-0.48,0.247-0.961,0.37-1.44c2.329,0,4.659,0.062,6.985-0.013
		c5.521-0.174,11.046-0.332,16.56-0.655c3.182-0.186,3.272-2.104,1.762-4.241C828.382,357.35,827.125,356.693,824.915,354.901z
		 M702.164,249.518c-0.256,0.354-0.512,0.708-0.767,1.061c5.447,4.628,10.895,9.257,16.343,13.885
		c-0.178,0.497-0.355,0.995-0.533,1.493c-4.189-1.034-8.378-2.07-13.428-3.318c0.766,2.065,1.258,3.027,1.457,4.046
		c0.161,0.83-0.029,1.73-0.063,2.599c-0.827-0.194-1.693-0.289-2.472-0.602c-1.626-0.654-3.206-1.423-4.805-2.145
		c0.516,1.725,0.882,3.516,1.6,5.151c0.485,1.105,1.42,2.034,2.233,2.973c3.053,3.521,6.14,7.015,8.963,10.233
		c-1.702,2.757-2.812,4.554-4.481,7.256c8.679,0,16.326,0,24.009,0C731.206,275.675,715.719,250.353,702.164,249.518z
		 M830.482,381.903c-1.999,0.583-3.576,0.948-5.084,1.501c-3.486,1.278-6.849,3.137-10.438,3.791
		c-2.047,0.373-4.655-0.786-6.631-1.92c-3.045-1.747-5.641-4.276-8.674-6.053c-1.618-0.948-3.753-1.016-5.654-1.48
		c0.579,1.791,1.169,3.578,1.723,5.376c0.073,0.238-0.042,0.535-0.077,0.869c-3.13,2.13-5.838,1.506-8.485-1.075
		c-3.732-3.637-8.399-3.604-13.162-3.107c0.645,0.852,1.396,1.425,2.23,1.6c4.146,0.871,6.848,3.399,9.516,6.643
		c2.157,2.622,5.421,4.881,8.644,5.985c14.458,4.951,26.979-0.547,38.97-8.086c0.118-0.074,0.076-0.403,0.131-0.757
		c-1.182,0.06-2.292,0.114-3.46,0.172C830.187,384.167,830.301,383.297,830.482,381.903z M808.414,408.582
		c10.814-0.147,21.421-1.396,31.656-5.256c3.787-1.428,4.46-3.726,3.431-7.09c-1.105-3.612-3.735-4.097-6.914-3.066
		c-3.535,1.146-6.969,2.696-10.572,3.518c-10.459,2.383-20.993,4.437-31.455,6.808c-0.773,0.176-1.206,1.849-1.797,2.826
		c2.052,0.924,4.042,2.406,6.169,2.641C802.041,409.305,805.249,408.753,808.414,408.582z M765.698,368.368
		c-0.055,0.604-0.11,1.209-0.165,1.814c23.032,2.099,46.063,4.199,69.439,6.33c-0.095-1.646-0.008-2.825-0.188-2.868
		c-3.087-0.725-6.207-1.31-8.895-1.842c-0.214-1.419-0.291-3.654-0.598-3.686c-2.664-0.278-5.369-0.16-8.347-0.16
		c0.855,1.492,1.397,2.437,2.312,4.03c-6.473-0.372-12.255-0.332-17.909-1.161c-3.896-0.572-7.541-2.793-11.437-3.436
		c-2.707-0.447-6.393-3.497-8.47,1.443c-0.152,0.363-1.738,0.192-2.653,0.153C774.425,368.803,770.062,368.578,765.698,368.368z
		 M789.245,308.605c2.991,0.108,6.065-2.283,6.257-4.866c0.234-3.155-3.334-5.698-8.059-6.006c-3.163-0.206-4.701,1.324-4.907,4.219
		C782.314,305.072,785.898,308.485,789.245,308.605z M775.34,126.815c-2.3,2.039-3.564,4.35-2.144,7.541
		c1.418,3.182,3.615,5.204,7.31,4.853c1.081-0.103,2.901-0.419,3.033-0.964c0.325-1.346,0.412-3.365-0.375-4.247
		C780.861,131.423,778.084,129.271,775.34,126.815z M767.852,296.789c-1.485,1.366-3.693,2.479-4.285,4.16
		c-0.853,2.421,3.218,6.07,6.196,5.882c2.874-0.182,5.421-1.521,5.262-4.684C774.838,298.471,771.721,297.868,767.852,296.789z
		 M757.212,383.729c3.006,5.41,17.757,10.247,24.64,8.692C774.962,385.648,764.925,389.617,757.212,383.729z M712.066,252.28
		c0.36-0.379,0.72-0.757,1.079-1.137c-3.314-7.132-9.855-12.652-14.88-11.275C703.186,244.293,707.626,248.287,712.066,252.28z
		 M788.848,157.254c-1.622-1.6-3.09-3.163-3.162-3.101c-1.821,1.564-3.771,3.125-5.024,5.113c-0.355,0.565,1.394,2.457,2.178,3.74
		C784.664,161.258,786.49,159.511,788.848,157.254z M767.937,162.867c0.489-1.863,1.404-3.467,1.153-4.862
		c-0.323-1.8-1.546-3.453-2.527-5.082c-0.05-0.083-2.138,0.64-2.151,1.028c-0.087,2.399-0.13,4.877,0.429,7.179
		C765.039,161.951,766.958,162.354,767.937,162.867z M773.374,406.496c-1.324-1.342-2.199-3.034-3.287-3.185
		c-4.081-0.563-8.231-0.621-12.356-0.869c-0.068,0.519-0.138,1.036-0.206,1.554C762.352,404.757,767.179,405.519,773.374,406.496z
		 M760.023,412.607c0.126-0.726,0.252-1.452,0.377-2.178c-5.586-0.91-11.171-1.821-16.757-2.732
		c-0.093,0.461-0.186,0.922-0.279,1.383C748.917,410.255,754.471,411.432,760.023,412.607z"/>
	<path fill-rule="evenodd" d="M946.282,500.799c-3.011-11.333-5.916-22.696-9.078-33.987c-1.484-5.296-3.624-10.407-5.159-15.691
		c-0.891-3.069-1.479-6.299-1.663-9.487c-0.39-6.77-0.438-13.558-0.594-20.339c-0.039-1.659-0.339-3.439,0.137-4.959
		c1.38-4.404-0.731-6.385-4.53-7.676c-2.738-0.931-5.446-2.016-8.037-3.297c-5.247-2.595-6.872-5.81-6.004-11.411
		c0.992-6.411,1.869-12.847,3.08-19.218c1.133-5.955,2.931-11.791,3.896-17.766c1.012-6.253,1.684-12.595,1.965-18.923
		c0.521-11.707,0.505-23.438,0.992-35.147c0.326-7.837,1.369-15.646,1.662-23.482c0.269-7.197-0.033-7.058-6.71-9.282
		c-5.755-1.916-11.406-4.154-17.05-6.386c-3.208-1.269-4.466-4.013-4.563-7.279c-0.263-8.769,0.602-17.172,4.305-25.482
		c3.446-7.733,6.495-15.525,12.119-21.996c0.686-0.789,1.4-1.554,2.249-2.495c1.407,6.167,1.542,6.243,10.781,6.222
		c0.863-3.055-0.796-4.802-3.178-6.21c-2.076-1.227-4.148-2.46-6.684-3.964c2.566-5.322,5.042-10.38,7.448-15.471
		c1.644-3.477,3.101-7.044,4.823-10.48c0.717-1.429,1.854-2.665,2.893-3.91c2.021-2.422,4.038-4.857,6.203-7.149
		c0.962-1.019,2.23-1.779,3.441-2.526c8.781-5.417,18.568-3.811,28.111-4.036c5.023-0.119,9.854-0.754,10.735-7.243
		c0.118-0.874,0.827-1.769,1.478-2.449c2.553-2.677,1.941-4.893,0.229-8.083c-6.896-12.848-14.583-25.513-15.105-40.732
		c-0.656-19.092,6.821-29.286,25.444-34.41c4.099-1.127,8.452-1.302,12.668-2.037c2.713-0.472,5.466-0.937,8.064-1.81
		c4.771-1.603,8.857-0.45,11.271,3.836c3.084,5.476,6.213,10.95,8.863,16.639c3.376,7.248,6.618,14.596,9.253,22.132
		c1.136,3.248,0.729,7.078,0.729,10.644c0,0.806-1.066,2.024-1.91,2.345c-3.23,1.228-2.816,3.423-2.319,6.105
		c0.514,2.765,0.219,5.671,0.603,8.47c0.474,3.45,0.476,7.312,2.109,10.184c3.928,6.906,6.08,15.27,4.806,24.296
		c-3.128-1.918-6.097-3.737-9.141-5.604c-4.728,15.755-17.024,19.347-31.014,19.846c-0.646,5.394-0.853,10.636-2.003,15.663
		c-0.963,4.21-3.056,4.524-6.047,1.543c-2.057-2.05-3.909-4.31-6.02-6.3c-0.772-0.729-2.022-0.95-3.055-1.403
		c-0.452,1.084-1.463,2.295-1.251,3.228c0.604,2.666,1.657,5.236,2.624,7.811c1.417,3.773,3.173,7.498,0.453,11.436
		c-0.469,0.678-0.792,1.456-1.184,2.188c-0.538-0.141-1.077-0.283-1.616-0.424c-1.771-6.594-3.484-13.204-5.353-19.771
		c-0.549-1.93-1.198-4-2.397-5.544c-3.029-3.902-5.753-3.38-7.739,1.112c-1.303,2.946-2.76,5.823-4.147,8.731
		c-0.384-0.12-0.766-0.238-1.149-0.357c1.392-4.29,2.52-8.691,4.283-12.823c0.895-2.093,0.909-2.902-1.02-4.319
		c-3.15-2.313-5.901-3.755-9.546-0.898c-0.487,0.382-2.891-1.023-3.846-2.1c-0.782-0.883-0.727-2.507-1.037-3.776
		c-5.734,0.981-8.744,3.5-8.77,9.587c-0.016,3.578-3.005,7.266-2.648,10.696c0.592,5.698-1.607,9.861-4.295,14.357
		c-1.783,2.982-1.062,3.735,2.915,5.293c-1.198,1.591-2.424,3.22-3.65,4.849c0.28,0.352,0.561,0.704,0.841,1.056
		c2.486-0.753,4.974-1.506,8.196-2.482c-3.362,2.519-6.04,4.526-8.72,6.533c0.28,0.459,0.56,0.918,0.84,1.376
		c0.976-0.265,1.979-0.453,2.92-0.81c3.225-1.221,6.438-2.473,9.634-3.767c3.632-1.471,7.275-3.406,8.804,2.611
		c0.211,0.827,2.346,2.036,2.82,1.756c1.276-0.747,2.134-2.206,3.636-3.933c1.137,0.714,2.709,1.702,4.592,2.884
		c9.824-3.123,13.327-2.919,15.063,1.611c1.589-0.606,3.178-1.211,4.706-1.794c1.021,4.185,3.858,5.169,9.08,2.418
		c0.432,0.977,0.775,1.977,1.293,2.876c0.958,1.666,2.697,4.79,2.938,4.683c4.444-1.99,5.312,3.455,8.695,3.948
		c4.121,0.6,8.412-1.023,9.042-5.065c0.795-5.109,3.657-8.882,7.158-12.281c0.771-0.748,2.265-0.754,3.751-0.615
		c7.978-12.243,12.987-26.942,26.318-35.391c-2.589,3.23-5.008,6.719-7.915,9.737c-2.532,2.628-1.79,4.815-0.029,7.827
		c4.421-3.74,8.618-7.289,12.813-10.837c0.316,0.267,0.632,0.534,0.947,0.8c-2.682,3.086-5.154,6.392-8.087,9.218
		c-7.944,7.658-16.959,14.327-21.752,24.773c-0.609,1.329-2.104,2.227-2.875,3.512c-0.606,1.011-0.728,2.313-1.064,3.486
		c1.341-0.209,3.131,0.061,3.946-0.706c4.334-4.081,8.475-8.373,12.582-12.687c3.051-3.204,5.919-6.581,8.945-9.81
		c0.58-0.618,1.516-0.901,2.288-1.339c0.29,0.324,0.579,0.648,0.868,0.973c-5.256,5.387-10.482,10.803-15.78,16.148
		c-2.534,2.556-5.143,5.045-7.83,7.437c-3.038,2.704-3.976,6.912-7.64,9.406c-2.22,1.51-2.452,5.079,2.068,6.122
		c-0.969,1.872-1.803,3.485-2.818,5.448c3.466,0,6.454-0.176,9.417,0.032c9.336,0.656,18.192,2.525,23.798,11.122
		c1.113,1.707,1.949,3.664,2.557,5.618c1.416,4.55,0.726,5.603-3.878,7.281c-3.479,1.268-6.963,2.563-10.305,4.143
		c-0.895,0.422-1.843,1.95-1.801,2.929c0.203,4.766,0.585,9.537,1.2,14.268c0.462,3.545,2.628,6.96-0.727,10.446
		c-0.8,0.831,0.176,3.368-0.344,5.632c-1.41-2.099-2.836-4.187-4.226-6.298c-0.987-1.499-2.161-2.936-2.825-4.574
		c-0.884-2.179-1.974-3.286-4.364-2.174c-0.367,0.171-0.856,0.369-1.197,0.263c-3.433-1.077-6.933-2.855-9.647,1.35
		c-0.037,0.059-0.785-0.341-1.677-0.738c0.4,13.565,9.317,23.74,11.941,36.045c2.6,12.196,6.136,24.192,8.957,35.11
		c-17.337-17.217-31.248-37.868-34.81-64.354c-0.671,0.11-1.343,0.221-2.013,0.331c-0.191,1.495-0.652,3.012-0.533,4.481
		c1.301,16.2,5.614,31.465,13.493,45.801c5.152,9.375,9.524,19.182,14.384,29.074c-2.839,1.271-4.936,2.21-7.936,3.554
		c3.658,2.148,6.828,4.01,9.998,5.872c-0.085,0.227-0.171,0.454-0.257,0.681c-3.191-0.45-6.383-0.9-9.575-1.351
		c-0.225,0.4-0.45,0.799-0.675,1.197c2.091,1.381,4.183,2.761,6.576,4.34c-4.872,2.084-9.781-2.991-14.813,1.256
		c5.583,2.217,10.405,4.13,16.207,6.433c-2.24,0.439-3.558,0.698-4.876,0.956c-0.454,0.502-0.908,1.004-1.363,1.505
		c1.498,0.552,2.995,1.104,4.491,1.657c-0.182,0.194-0.363,0.389-0.545,0.583c-8.663,0-17.326,0-24.401,0
		c10.362,6.857,23.702,5.999,36.893,6.014c1.656,0.003,3.312,0.001,5.124,0.547c-2.708,0.962-5.417,1.923-8.125,2.885
		c0.024,0.396,0.05,0.789,0.075,1.184c6.762,2.62,14.073,1.233,21.393,1.934c-5.852,23.491-4.558,47.171-4.687,70.761
		C1021.15,500.799,983.717,500.799,946.282,500.799z M1054.691,269.11c-0.367-1.68-0.589-2.776-0.85-3.863
		c-0.366-1.517-0.355-3.339-1.23-4.469c-1.752-2.263-4.373-3.915-7.188-2.412c-1.316,0.703-2.469,3.002-2.502,4.603
		c-0.15,7.261-3.211,12.755-9.231,16.597c-2.342,1.495-2.986,3.011-1.287,5.376c1.631,2.268,3.396,2.82,5.418,0.621
		c2.741-2.984,5.236-6.212,8.131-9.034C1048.786,273.766,1051.988,271.379,1054.691,269.11z M933.407,206.567
		c2.401-7.601,4.474-14.848,7.023-21.922c1.195-3.314,3.179-6.265-0.212-9.378c-0.396-0.363-0.293-1.281-0.401-1.945
		c-0.235-1.436-0.458-2.874-0.688-4.311c-1.329,1.001-3.019,1.75-3.925,3.046c-4.413,6.312-4.124,13.625-3.721,20.803
		C931.74,197.433,932.735,201.963,933.407,206.567z M1004.793,91.446c2.099,3.634,3.595,7.136,5.927,9.941
		c1.558,1.875,4.203,3.034,6.581,3.94c0.873,0.333,2.729-0.699,3.466-1.636c0.493-0.629,0.167-2.448-0.43-3.273
		c-1.246-1.724-2.883-3.175-4.42-4.676c-1.056-1.031-2.519-1.767-3.27-2.967C1010.163,88.812,1008,88.467,1004.793,91.446z
		 M1000.933,246.708c-1.153-1.149-2.386-3.079-4.135-3.88c-1.206-0.551-3.873-0.059-4.54,0.902c-0.829,1.194-0.385,3.361-0.26,5.09
		c0.067,0.915,0.477,1.894,0.996,2.665c0.899,1.34,2.005,2.542,3.024,3.801c1.184-1.159,2.59-2.172,3.478-3.525
		C1000.199,250.688,1000.266,249.197,1000.933,246.708z M1012.152,256.408c-0.132-4.884-2.88-8.811-5.294-8.45
		c-4.36,0.65-2.932,4.789-3.476,7.324c-0.641,2.987,2.239,4.607,4.735,4.248C1009.848,259.281,1011.3,257.115,1012.152,256.408z
		 M926.194,195.02c-2.491,7.264,0.381,19.726,4.478,20.542C932.255,208.19,928.17,202.212,926.194,195.02z M1025.893,152.127
		c-2.676,3.829-2.684,8.465-1.997,13.063c0.116,0.78,2.409,1.235,3.695,1.839c0.604-3.023,1.749-6.07,1.615-9.061
		C1029.12,156.05,1027.148,154.215,1025.893,152.127z M1024.53,334.745c-0.844,0.289-1.688,0.578-2.531,0.867
		c0.744,1.829,1.121,4.892,2.307,5.245c2.976,0.887,3.406,2.601,3.622,5.118c0.104,1.21,0.959,2.355,1.475,3.53
		c0.649-0.333,1.299-0.666,1.948-0.999C1029.078,343.919,1026.804,339.333,1024.53,334.745z M953.957,226.451
		c-4.203,0.73-8.173,1.636-11.751,5.44C950.736,231.296,954.108,231.54,953.957,226.451z M1020.519,310.081
		c0.553-0.328,1.105-0.657,1.659-0.985c-1.334-2.588-2.667-5.176-4-7.764c-0.523,0.271-1.049,0.541-1.572,0.813
		C1017.91,304.79,1019.214,307.436,1020.519,310.081z"/>
	<path fill-rule="evenodd" fill="#FFFFFF" d="M781.571,500.799c0.898-15.472,1.797-30.945,2.694-46.418
		c0.357-0.113,0.715-0.227,1.071-0.34c0.704,1.301,1.639,2.53,2.075,3.916c3.95,12.521,7.783,25.078,11.732,37.6
		c0.574,1.817,1.584,3.498,2.393,5.242C794.882,500.799,788.227,500.799,781.571,500.799z"/>
	<path fill-rule="evenodd" d="M615.354,156.146c0.186,2.169,1.016,4.525,0.451,6.477c-3.199,11.045-2.234,22.197-1.416,33.372
		c0.086,1.186,0.012,2.384-0.559,3.611c-2.915-6.98-1.87-14.384-2.017-21.581c-0.147-7.246,0.687-14.511,1.09-21.768
		C613.721,156.22,614.538,156.183,615.354,156.146z"/>
	<path fill-rule="evenodd" d="M947.81,201.198c1.304-6.324,3.731-11.385,9.718-14.318
		C958.508,196.044,957.943,196.864,947.81,201.198z"/>
	<path fill-rule="evenodd" d="M1276.555,237.177c4.619,2.308,8.591,4.292,14.283,7.135c-2.496,2.613-4.273,4.472-6.05,6.33
		c-0.543-0.377-1.085-0.755-1.628-1.132C1281.14,245.735,1279.117,241.961,1276.555,237.177z"/>
	<path fill-rule="evenodd" d="M1054.234,342.65c-1.9-2.132-4.303-4.361-6.119-6.995c-1.73-2.51-2.851-5.44-4.548-8.797
		C1050.948,329.506,1054.816,335.903,1054.234,342.65z"/>
	<path fill-rule="evenodd" d="M583.426,162.971c6.941-1.248,9.774-8.032,15.214-11.308c0.695-0.418,1.286-1.01,2.113-1.672
		c2.457,4.756-2.926,2.754-3.898,4.891c1.015,0.359,1.923,0.679,3.343,1.181c-4.838,4.717-10.572,6.415-16.864,6.824
		C583.329,162.881,583.426,162.971,583.426,162.971z"/>
	<path fill-rule="evenodd" d="M1065.447,353.846c0,6.559,0,13.116,0,19.675c-0.166,0.014-0.334,0.027-0.5,0.04
		c-0.462-6.563-0.925-13.126-1.387-19.688C1064.19,353.863,1064.818,353.854,1065.447,353.846z"/>
	<path fill-rule="evenodd" d="M1041.965,175.456c-1.212-0.346-3.281-0.445-3.468-1.088c-0.476-1.648-0.446-3.637,0.049-5.29
		c0.253-0.84,1.945-1.249,2.987-1.853c0.176,0.289,0.352,0.578,0.527,0.866c-0.643,0.908-1.88,1.883-1.786,2.708
		c0.14,1.228,1.219,2.35,1.897,3.516C1042.104,174.696,1042.034,175.076,1041.965,175.456z"/>
	<path fill-rule="evenodd" d="M263.903,164.417c-3.38-3.617-6.523-6.979-9.761-10.444
		C257.954,154.506,262.827,159.74,263.903,164.417z"/>
	<path fill-rule="evenodd" d="M276.349,170.378c1.402,3.381,2.804,6.761,4.207,10.142c-0.548,0.23-1.097,0.46-1.646,0.69
		c-1.329-3.371-2.658-6.743-3.987-10.114C275.398,170.857,275.874,170.617,276.349,170.378z"/>
	<path fill-rule="evenodd" d="M1065.071,392.407c0-2.946,0-5.892,0-8.838c0.195-0.008,0.391-0.015,0.586-0.023
		c0,2.949,0,5.898,0,8.848C1065.462,392.398,1065.267,392.402,1065.071,392.407z"/>
	<path fill-rule="evenodd" fill="#FFFFFF" d="M251.354,196.563c-0.851-0.42-2.139-0.631-2.459-1.304
		c-0.653-1.372-1.143-3.044-0.936-4.482c0.072-0.498,2.596-1.241,3.681-0.889c4.451,1.446,8.772,3.287,13.155,4.944
		c0.967,0.366,1.993,0.575,2.992,0.856c0.21-0.47,0.421-0.939,0.631-1.409c-10.232-4.948-20.464-9.896-30.695-14.845
		c-0.056-0.401-0.112-0.802-0.168-1.203c1.477-0.446,3.141-1.571,4.397-1.223c6.098,1.69,12.289,3.329,18.019,5.93
		c2.446,1.111,3.673,4.689,5.756,6.857c5.568,5.797,8.242,12.591,9.634,20.563c1.073,6.142,4.746,11.809,7.045,17.772
		c0.599,1.554,0.603,3.453,0.361,5.118c-0.047,0.321-2.513,0.389-3.865,0.404c-5.662,0.064-11.325,0.065-16.987,0.086
		c-1.28,0.005-2.561,0.001-3.856,0.001c1.482-2.213,2.637-3.935,4.171-6.225c-2.376,0-4.303,0-6.229,0
		c-0.032-0.178-0.063-0.355-0.094-0.534c1.423-0.294,2.846-0.588,4.269-0.881c0.097-0.293,0.193-0.585,0.29-0.879
		c-4.704-2.137-9.407-4.275-14.111-6.413c0.052-0.209,0.104-0.419,0.156-0.628c2.901,0.564,5.802,1.128,8.885,1.727
		c-1.436-2.614-2.665-4.851-4.208-7.66c4.994-0.334,10.114-0.678,15.234-1.021c0.071-0.367,0.143-0.734,0.214-1.102
		c-7.112-1.248-14.223-2.495-21.335-3.743c0-0.554,0-1.108,0-1.663c2.491-0.52,4.981-1.039,7.473-1.558
		c0.073-0.248,0.145-0.496,0.217-0.745c-2.898-1.157-5.797-2.313-8.696-3.47c0.025-0.215,0.051-0.43,0.077-0.646
		c2.338-0.111,4.677-0.222,7.016-0.333C251.377,197.5,251.365,197.031,251.354,196.563z"/>
	<path fill-rule="evenodd" fill="#FFFFFF" d="M325.96,423.088c1.553-0.738,2.542-1.319,3.605-1.681
		c1.092-0.371,2.257-0.527,3.391-0.776c0.043-0.488,0.085-0.977,0.127-1.464c-3.887-0.718-7.774-1.438-11.449-2.116
		c1.203-0.375,2.708-0.846,3.848-1.202c0.284-6.835-0.471-13.037-4.52-17.388c2.109-1.155,3.556-2.016,5.066-2.743
		c0.688-0.331,1.857-0.799,2.187-0.507c0.718,0.638,1.341,1.683,1.47,2.633c0.755,5.556,0.609,4.982,6.258,4.073
		c3.958-0.637,8.213,0.583,12.336,0.974c0.006,0.563,0.012,1.126,0.018,1.688c-1.075,0.114-2.445,0.714-3.177,0.267
		c-5.227-3.193-9.935-0.053-14.794,1.019c-0.482,0.106-1.213,1.298-1.138,1.386c0.949,1.092,1.912,2.255,3.117,3.003
		c0.592,0.367,1.961,0.238,2.524-0.223c5.18-4.233,5.151-4.269,12.229-0.466c-0.197,1.405-0.398,2.837-0.694,4.941
		c2.025,0,3.632,0.058,5.234-0.011c6.608-0.279,13.216-0.6,19.824-0.9c2.797-0.127,4.671,0.446,3.801,4.009
		c-0.331,1.354,0.185,2.916,0.398,5.335c-4.149-0.228-8.187-0.418-12.219-0.677c-4.26-0.271-8.094,0.146-12.481,1.403
		c-7.266,2.081-15.488,0.833-23.308,0.938C327.324,424.606,327.027,424.088,325.96,423.088z M351.35,416.261
		c-0.049,0.429-0.099,0.855-0.147,1.283c6.803,1.65,13.548,2.068,20.102-1.283C364.653,416.261,358.001,416.261,351.35,416.261z"/>
	<path fill-rule="evenodd" fill="#FFFFFF" d="M371.797,355.873c-3.443-1.86-6.614-2.965-8.99-4.999
		c-3.602-3.084-7.366-4.753-12.094-4.114c-0.674,0.091-1.44,0.178-2.051-0.045c-7.319-2.661-14.626-5.356-21.909-8.115
		c-0.976-0.369-1.798-1.141-2.477-2.641c2.284,0.34,4.574,0.97,6.851,0.928c1.856-0.034,3.698-0.873,5.546-1.354
		c-0.642-1.463-1.284-2.927-2.285-5.209c1.484-0.411,3.234-0.896,6.119-1.697c-1.565-2.894-3.051-5.644-4.218-7.8
		c2.754,0.224,5.921,0.527,9.094,0.726c2.864,0.179,7.928,5.07,8.909,7.782c0.701,1.938,2.185,4.021,3.909,5.064
		c2.773,1.678,5.019,3.253,5.109,6.844c0.022,0.923,0.896,2.626,1.325,2.608c3.296-0.13,4.115,2.706,6.028,4.327
		C373.238,350.36,372.446,352.374,371.797,355.873z"/>
	<path fill-rule="evenodd" fill="#FFFFFF" d="M339.483,223.679c-2.593,3.223-4.603,5.72-6.849,8.512
		c4.289,2.563,4.564,0.352,3.937-3.289c2.536,2.43,2.556,4.353,0.477,5.637c-2.114,1.307-4.721,2.087-6.591-0.612
		c-4.924-7.103-5.234-11.762-0.077-18.503c5.266-6.881,7.376-14.546,7.962-22.944c0.127-1.824,0.948-3.751,1.928-5.335
		c2.573-4.162,5.41-8.161,8.302-12.463c2.355,0.662,3.075,1.619,1.787,5.34c-3.827,11.062-7.908,22.037-11.917,33.037
		c-1.024,2.81-2.148,5.583-2.746,7.129C337.591,221.934,338.681,222.939,339.483,223.679z"/>
	<path fill-rule="evenodd" fill="#FFFFFF" d="M351.237,207.967c-1.043-0.239-2.087-0.479-2.838-0.651
		c-1.128,3.07-2.166,5.893-3.418,9.3c-1.169-0.542-2.348-1.087-3.424-1.585c5.354-12.045,10.459-23.624,15.686-35.147
		c0.525-1.157,1.779-1.982,2.695-2.961c0.487,1.386,1.576,2.878,1.355,4.141c-0.926,5.29-2.331,10.495-3.393,15.764
		c-0.751,3.73-1.343,7.504-1.728,11.287c-0.067,0.651,1.14,1.677,1.975,2.12c1.307,0.691,3.145,0.675,4.118,1.619
		c1,0.971,2.094,3.401,1.622,4.012c-1.013,1.309-3.009,1.856-4.602,2.715c-0.536-1.353-1.078-2.704-1.602-4.062
		c-0.142-0.367-0.231-0.754-0.372-1.224c-1.447,3.396-0.995,3.474,0.318,6.581c0.834,1.973,0.156,4.584,0.156,7.27
		c-1.66-2.383-2.873-4.125-4.085-5.865c-0.655,1.357-1.309,2.714-1.918,3.979c-0.339-1.934-0.729-4.156-1.19-6.785
		c0.374-0.199,1.302-0.503,1.949-1.109c0.39-0.365,0.657-1.348,0.441-1.798C350.694,210.774,350.665,210.788,351.237,207.967z"/>
	<path fill-rule="evenodd" fill="#FFFFFF" d="M337.658,383.155c-6.145,0.734-10.63,1.271-15.294,1.828
		c3.184-4.082,11.102-5.303,20.752-3.219c-0.38,0.862-0.676,1.669-1.081,2.419c-0.761,1.412-2.58,3.569-2.208,4.043
		c1.426,1.816,3.445,3.25,5.453,4.484c0.879,0.541,2.266,0.259,3.422,0.35c0.067,0.438,0.134,0.876,0.201,1.313
		c-3.174,0.679-8.114,2.925-9.177,1.729C337.007,393.039,333.477,389.058,337.658,383.155z"/>
	<path fill-rule="evenodd" fill="#FFFFFF" d="M362.76,191.647c3.48,3.198,5.417,7.022,5.547,11.63
		c0.033,1.176-0.359,3.293-0.848,3.383c-1.507,0.276-3.4,0.213-4.692-0.517c-1.93-1.089-2.628-11.504-1.18-13.431
		C361.894,192.304,362.353,192.009,362.76,191.647z"/>
	<path fill-rule="evenodd" fill="#FFFFFF" d="M319.803,243.723c-5.606-0.681-9.376,5.467-15.167,3.155
		c-0.995-0.397-2.193-0.259-3.224-0.595c-2.25-0.733-2.437-2.089-0.715-3.595c2.461-2.15,15.794-2.412,18.666-0.42
		C319.529,242.384,319.52,242.752,319.803,243.723z"/>
	<path fill-rule="evenodd" fill="#FFFFFF" d="M253.589,165.771c-3.404-2.135-6.809-4.271-10.212-6.405
		c7.19,2.227,14.179,4.734,18.372,12.938c-8.219-2.489-15.566-4.714-22.915-6.939c0.133-0.472,0.266-0.945,0.399-1.417
		c4.568,1.094,9.136,2.189,13.705,3.284C253.154,166.745,253.372,166.258,253.589,165.771z"/>
	<path fill-rule="evenodd" fill="#FFFFFF" d="M375.758,408.308c-3.832,3.783-6.176,3.547-9.757,0.46
		c-1.984-1.71-4.902-2.297-7.268-3.624c-0.901-0.505-1.437-1.664-2.139-2.526c1.068-0.343,2.351-1.249,3.168-0.937
		C365.099,403.721,370.335,406.025,375.758,408.308z"/>
	<path fill-rule="evenodd" fill="#FFFFFF" d="M246.477,338.08c0.947,6.94,1.777,13.026,2.579,18.896
		C242.046,355.579,241.561,346.785,246.477,338.08z"/>
	<path fill-rule="evenodd" fill="#FFFFFF" d="M365.086,389.305c2.524,3.051,5.077,5.868,7.261,8.948
		c0.607,0.855,0.118,2.488,0.133,3.766c-0.992-0.053-2.142,0.203-2.95-0.21C364.871,399.434,363.231,394.882,365.086,389.305z"/>
	<path fill-rule="evenodd" fill="#FFFFFF" d="M348.167,229.666c1.467,2.646,2.398,4.327,3.33,6.007
		c0.33-0.186,0.66-0.372,0.99-0.558c-0.196-1.435-0.424-2.869-0.506-4.31c-0.005-0.085,1.158-0.237,1.989-0.4
		c-0.16,2.327-0.3,4.362-0.44,6.397c-1.882-0.215-3.765-0.432-5.815-0.667c-0.18-1.784-0.338-3.358-0.497-4.933
		c-0.247-0.064-0.494-0.128-0.74-0.192c-0.354,0.892-0.48,2.035-1.118,2.617c-0.883,0.804-2.215,1.704-3.233,1.579
		c-0.766-0.093-1.937-1.798-1.846-2.673c0.106-1.021,1.264-2.556,2.189-2.738C344.561,229.383,346.789,229.666,348.167,229.666z"/>
	<path fill-rule="evenodd" fill="#FFFFFF" d="M521.755,208.046c-4.998-7.86,0.756-43.104,9.032-51.967
		c-0.55,6.462,3.47,8.786,7.915,11.113c2.349,1.229,4.115,3.573,6.383,5.63c0.477-1.72,0.991-3.58,1.506-5.439
		c0.334-0.234,0.668-0.469,1.002-0.703c3.094,5.139,7.098,9.949,9.106,15.482c5.281,14.547,5.454,29.386,0.734,44.322
		c-1.247,3.946-0.859,8.409-1.231,12.633c-0.254,2.88-1.343,5.199-4.607,5.299c-3.481,0.108-2.898-2.641-2.918-4.772
		c-0.049-5.091-0.016-10.184-0.016-15.593c-0.767,0.321-1.311,0.382-1.388,0.604c-1.899,5.477-9.394,8.645-6.667,16.063
		c0.109,0.297-0.466,0.846-1.669,1.31c-0.419-2.683-0.799-5.373-1.275-8.046c-0.209-1.177-0.297-3.072-0.978-3.357
		c-4.664-1.951-3.708-5.4-2.994-9.06c0.282-1.445-0.27-3.054-0.467-4.808c0.81-0.498,1.828-1.123,3.13-1.923
		c-2.458-2.163-8.338-2.637-3.563-7.6c-1.38-1.271-2.581-2.376-4.907-4.516c2.116-1.194,4.004-2.26,5.894-3.326
		c0.038-0.486,0.076-0.973,0.113-1.459c-8.314,1.239-6.788-4.816-8.002-8.877c-0.945,6.368-1.889,12.737-2.834,19.105
		C522.621,208.123,522.188,208.084,521.755,208.046z"/>
	<path fill-rule="evenodd" fill="#FFFFFF" d="M505.336,188.004c4.684,6.01,7.571,12.609,6.431,20.426
		c-0.204,1.395-0.927,2.715-1.179,3.422c0.48,3.11,0.897,5.814,1.466,9.497c-2.967-1.3-4.553-1.994-6.139-2.688
		c-0.49-0.412-0.979-0.824-1.469-1.236c-6.615-2.571-13.223-5.159-19.85-7.698c-1.37-0.525-2.811-0.865-4.236-1.295
		c1.304-7.609,6.993-4.072,11.688-4.847c-3.188-1.85-5.736-3.329-8.286-4.809c0.127-0.302,0.255-0.604,0.383-0.906
		c6.966,2.714,13.933,5.429,20.898,8.144c0.148-0.255,0.296-0.51,0.445-0.765c-5.775-3.617-11.551-7.233-17.747-11.113
		c2.434,0,4.464,0,6.188,0c-0.122-2.111-0.23-3.98-0.378-6.54c5.635,0.507,9.83,4.48,14.641,6.901c0.25-0.41,0.5-0.819,0.75-1.229
		c-6.196-4.053-12.392-8.105-18.588-12.159c0.152-0.285,0.304-0.569,0.456-0.854c4.892,2.634,9.783,5.268,14.675,7.902
		L505.336,188.004z"/>
	<path fill-rule="evenodd" fill="#FFFFFF" d="M592.283,246.808c4.203,1.041,7.508,1.539,10.563,2.698
		c3.558,1.352,5.116,5.177,4.001,8.506c-1.158,3.457-4.636,5.826-8.184,4.428c-4.278-1.687-8.224-4.311-12.084-6.874
		c-0.708-0.47-0.94-3.166-0.316-3.843C588.108,249.719,590.491,248.212,592.283,246.808z"/>
	<path fill-rule="evenodd" fill="#FFFFFF" d="M504.446,217.425c0.49,0.412,0.979,0.824,1.469,1.236
		c6.515,4.279,4.118,10.49,3.878,16.386c-5.242-0.255-10.144-0.423-15.028-0.82c-0.615-0.05-1.131-1.303-1.693-1.998
		c0.772-0.605,1.473-1.595,2.328-1.753c4.522-0.84,4.555-0.958,2.331-4.911c-0.65-1.155-1.236-3.519-0.708-3.959
		C499.188,219.797,500.67,216.417,504.446,217.425z"/>
	<path fill-rule="evenodd" fill="#FFFFFF" d="M510.74,157.316c2.23-0.196,3.557-0.313,5.219-0.459
		c0.882,1.942,1.968,4.334,3.054,6.727c0.277-0.056,0.555-0.112,0.832-0.168c0.144-1.474,0.288-2.948,0.432-4.422
		c0.323-0.107,0.646-0.214,0.968-0.321c0.492,1.01,1.46,2.052,1.394,3.024c-0.278,4.085-0.667,8.188-1.453,12.199
		c-0.248,1.265-1.86,2.263-2.848,3.383c-0.674-1.317-1.367-2.626-2.011-3.958c-0.165-0.342-0.178-0.756-0.352-1.557
		c-0.647,0.984-1.104,1.679-1.921,2.921c-0.475-1.757-0.799-2.96-1.224-4.533c-0.739,1.183-1.27,2.033-1.8,2.882
		c-0.46-0.056-0.92-0.113-1.38-0.169C510.02,167.596,510.389,162.325,510.74,157.316z"/>
	<path fill-rule="evenodd" fill="#FFFFFF" d="M538.635,251.407c-7.452,1.875-14.559,2.646-20.061-3.916
		c-0.722-0.862-1.702-2.592-1.372-3.035c0.788-1.059,2.274-2.208,3.499-2.232C528.301,242.075,533.279,247.102,538.635,251.407z"/>
	<path fill-rule="evenodd" fill="#FFFFFF" d="M664.536,247.839c-0.164-1.328-0.328-2.656-0.486-3.94
		c-6.239-1.029-8.593-5.421-6.267-11.395c0.898-2.306,4.955-3.638,7.576-2.253c2.434,1.285,4.369,2.588,1.984,6.035
		c-1.188,1.717-0.63,4.652-0.831,7.039c-0.135,1.596-0.215,3.197-0.319,4.794C665.64,248.026,665.088,247.933,664.536,247.839z"/>
	<path fill-rule="evenodd" fill="#FFFFFF" d="M505.534,172.274c-3.788-6.388-7.576-12.775-11.468-19.337
		C503.335,152.931,507.198,159.106,505.534,172.274z"/>
	<path fill-rule="evenodd" fill="#FFFFFF" d="M505.486,188.158c-4.17-3.698-8.336-7.399-12.512-11.091
		c-1.199-1.06-2.426-2.087-3.926-3.375c9.146-1.327,19.201,6.934,18.6,14.877c-0.787-0.193-1.55-0.38-2.313-0.565
		C505.336,188.004,505.486,188.158,505.486,188.158z"/>
	<path fill-rule="evenodd" fill="#FFFFFF" d="M549.79,247.261c3.123,0.504,7.333,4.462,7.169,6.856
		c-0.049,0.722-1.455,2.064-1.842,1.936c-3.07-1.023-6.043-2.335-9.047-3.558C547.31,250.75,548.55,249.005,549.79,247.261z"/>
	<path fill-rule="evenodd" fill="#FFFFFF" d="M514.436,244.385c-4.539-1.721-10.332-0.115-14.45-6.304
		c2.167,0.28,3.324,0.405,4.474,0.583c1.975,0.307,4.049,0.365,5.888,1.048c1.846,0.686,3.455,2.009,5.168,3.053
		C515.155,243.304,514.795,243.845,514.436,244.385z"/>
	<path fill-rule="evenodd" fill="#FFFFFF" d="M564.044,226.569c0.696,4.375,0.18,4.827-4.209,3.456
		c0.611-2.038,0.887-5.634,1.911-5.861c2.73-0.605,5.781,0.238,8.901,0.523c-1.021,2.686-1.792,4.714-2.859,7.523
		C566.198,229.553,568.45,225.68,564.044,226.569z"/>
	<path fill-rule="evenodd" fill="#FFFFFF" d="M502.053,175.413c-4.179-3.093-8.358-6.186-13.232-9.794
		c6.303-0.576,12.27,3.583,13.971,8.828C502.545,174.769,502.299,175.091,502.053,175.413z"/>
	<path fill-rule="evenodd" fill="#FFFFFF" d="M586.553,226.479c-1.867,1.66-2.911,3.169-4.276,3.563
		c-0.705,0.204-2.984-2.049-2.83-2.374c0.737-1.553,1.938-2.988,3.295-4.056C582.998,223.413,584.716,225.071,586.553,226.479z"/>
	<path fill-rule="evenodd" fill="#FFFFFF" d="M564.123,390.066c-4.55-0.403-9.099-0.807-13.648-1.21
		c0.029-0.431,0.058-0.86,0.087-1.291c4.537,0.323,9.074,0.645,13.611,0.967C564.156,389.043,564.14,389.556,564.123,390.066z"/>
	<path fill-rule="evenodd" fill="#FFFFFF" d="M566.295,405.621c4.451-0.402,8.902-0.806,13.354-1.208c0.033,0.4,0.066,0.801,0.1,1.2
		c-4.49,0.48-8.98,0.961-13.471,1.441C566.283,406.577,566.289,406.099,566.295,405.621z"/>
	<path fill-rule="evenodd" fill="#FFFFFF" d="M598.682,222.607c1.006,2.379,1.889,3.918,2.23,5.569
		c0.119,0.58-1.094,1.434-1.698,2.163c-0.76-1.548-1.695-3.045-2.184-4.674C596.858,225.093,597.784,224.192,598.682,222.607z"/>
	<path fill-rule="evenodd" fill="#FFFFFF" d="M1204.695,276.021c0.649-1.33,1.032-2.116,1.592-3.262c-2.025,0-3.956,0-5.861,0
		c-0.437-7.265,5.518-8.683,9.634-11.669c0.098-0.071,0.309-0.105,0.401-0.049c5.214,3.163,12.456,0.99,16.815,6.385
		c0.342,0.423,0.659,0.876,0.905,1.356c0.11,0.217,0.019,0.535,0.019,1.347c-6.736,0.921-13.252-6.023-20.228,0.272
		c0.682,1.188,1.875,3.266,3.228,5.619C1209.275,276.021,1207.258,276.021,1204.695,276.021z"/>
	<path fill-rule="evenodd" fill="#FFFFFF" d="M1138.106,222.221c-2.62,1.911-4.279,3.121-6.087,4.44
		c-0.703-5.681,5.379-13.468,13.211-17.426c3.117,5.992-0.633,13.974-8.641,17.82c0.134-0.82,0.179-1.441,0.348-2.028
		C1137.104,224.445,1137.396,223.9,1138.106,222.221z"/>
	<path fill-rule="evenodd" fill="#FFFFFF" d="M1114.141,280.257c6.384,2.423,12.768,4.845,20.149,7.646
		c-3.872,1.884-6.513,3.345-9.303,4.419c-0.83,0.319-2.48-0.1-3.068-0.775c-2.845-3.274-5.456-6.751-8.15-10.157
		C1113.893,281.013,1114.017,280.635,1114.141,280.257z"/>
	<path fill-rule="evenodd" fill="#FFFFFF" d="M1208.34,93.69c-0.198,0.283-0.757,1.774-1.332,1.78
		c-1.523,0.016-3.544-0.125-4.486-1.075c-2.386-2.406-4.373-5.233-6.311-8.036c-0.371-0.539-0.092-2.192,0.421-2.538
		c1.023-0.689,2.501-1.302,3.644-1.103C1203.675,83.313,1208.288,89.399,1208.34,93.69z"/>
	<path fill-rule="evenodd" fill="#FFFFFF" d="M1130.414,217.652c-1.922-3.91,0.32-7.914,6.498-11.896
		c2.2-1.418,4.219-1.928,5.467,0.306C1138.226,210.085,1134.334,213.855,1130.414,217.652z"/>
	<path fill-rule="evenodd" fill="#FFFFFF" d="M1190.256,275.624c2.244-1.086,3.628-1.757,5.352-2.59c0,2.132,0,3.785,0,6.264
		C1193.742,278.018,1192.431,277.117,1190.256,275.624z"/>
	<path fill-rule="evenodd" fill="#FFFFFF" d="M1235.646,190.165c1.436-3.86,2.87-7.719,4.305-11.579
		c0.293,0.101,0.586,0.202,0.878,0.303c-1.228,3.946-2.457,7.892-3.687,11.838C1236.645,190.541,1236.146,190.353,1235.646,190.165z
		"/>
	<path fill-rule="evenodd" fill="#FFFFFF" d="M1240.762,383.751c-2.788-0.433-5.017-0.777-7.663-1.188
		C1237.25,379.645,1239.523,379.923,1240.762,383.751z"/>
	<path fill-rule="evenodd" fill="#FFFFFF" d="M824.915,354.901c2.21,1.792,3.467,2.448,4.193,3.478
		c1.511,2.138,1.42,4.056-1.762,4.241c-5.514,0.323-11.038,0.481-16.56,0.655c-2.326,0.074-4.656,0.013-6.985,0.013
		c-0.123,0.479-0.246,0.96-0.37,1.44c3.558,1.189,7.116,2.378,11.064,3.698c-5.605,1.026-10.187,0.76-14.916-2.876
		c-2.89-2.222-7.507-2.232-11.369-3.146c-5.765-1.366-11.591-2.501-17.308-4.043c-2.751-0.742-5.806-1.568-7.033-5.663
		c1.81,0.087,3.108,0.251,4.395,0.184c1.62-0.085,3.866,0.245,4.728-0.662c2.938-3.093,5.399-1.208,8.179-0.041
		c3.834,1.61,7.774,2.97,11.668,4.436c0.347-0.534,0.692-1.069,1.039-1.604c-3.035-2.94-6.07-5.881-9.339-9.048
		c4.5-3.783,8.559-2.576,12.192-0.598c3.147,1.713,5.921,2.424,9.356,1.031c2.976-1.206,4.27,1.193,5.19,3.405
		c1.697,4.078,3.906,7.355,8.34,9.154C822.963,360.313,825.292,361.439,824.915,354.901z"/>
	<path fill-rule="evenodd" fill="#FFFFFF" d="M702.164,249.518c13.555,0.834,29.042,26.157,28.056,42.632c-7.683,0-15.33,0-24.009,0
		c1.669-2.702,2.779-4.499,4.481-7.256c-2.824-3.219-5.91-6.712-8.963-10.233c-0.813-0.938-1.748-1.867-2.233-2.973
		c-0.718-1.636-1.084-3.427-1.6-5.151c1.599,0.722,3.179,1.49,4.805,2.145c0.779,0.313,1.645,0.407,2.472,0.602
		c0.034-0.868,0.225-1.769,0.063-2.599c-0.199-1.019-0.691-1.98-1.457-4.046c5.05,1.248,9.239,2.284,13.428,3.318
		c0.178-0.498,0.355-0.996,0.533-1.493c-5.448-4.628-10.896-9.257-16.343-13.885C701.652,250.226,701.908,249.872,702.164,249.518z"
		/>
	<path fill-rule="evenodd" fill="#FFFFFF" d="M830.482,381.903c-0.182,1.394-0.296,2.264-0.452,3.458
		c1.168-0.058,2.278-0.112,3.46-0.172c-0.055,0.354-0.013,0.683-0.131,0.757c-11.99,7.539-24.512,13.037-38.97,8.086
		c-3.223-1.104-6.486-3.363-8.644-5.985c-2.668-3.243-5.369-5.771-9.516-6.643c-0.835-0.175-1.586-0.748-2.23-1.6
		c4.763-0.496,9.43-0.529,13.162,3.107c2.647,2.581,5.355,3.205,8.485,1.075c0.035-0.334,0.15-0.631,0.077-0.869
		c-0.554-1.798-1.144-3.585-1.723-5.376c1.901,0.465,4.036,0.532,5.654,1.48c3.033,1.776,5.629,4.306,8.674,6.053
		c1.976,1.134,4.584,2.293,6.631,1.92c3.589-0.654,6.951-2.513,10.438-3.791C826.906,382.852,828.483,382.486,830.482,381.903z"/>
	<path fill-rule="evenodd" fill="#FFFFFF" d="M808.414,408.582c-3.165,0.171-6.373,0.723-9.482,0.38
		c-2.127-0.234-4.117-1.717-6.169-2.641c0.591-0.978,1.023-2.65,1.797-2.826c10.462-2.371,20.996-4.425,31.455-6.808
		c3.604-0.821,7.037-2.372,10.572-3.518c3.179-1.03,5.809-0.546,6.914,3.066c1.029,3.364,0.356,5.662-3.431,7.09
		C829.835,407.186,819.229,408.435,808.414,408.582z"/>
	<path fill-rule="evenodd" fill="#FFFFFF" d="M765.698,368.368c4.363,0.21,8.727,0.435,13.09,0.619
		c0.915,0.039,2.501,0.21,2.653-0.153c2.077-4.94,5.763-1.891,8.47-1.443c3.896,0.643,7.541,2.863,11.437,3.436
		c5.654,0.829,11.437,0.789,17.909,1.161c-0.914-1.594-1.456-2.538-2.312-4.03c2.978,0,5.683-0.118,8.347,0.16
		c0.307,0.031,0.384,2.267,0.598,3.686c2.688,0.532,5.808,1.117,8.895,1.842c0.181,0.043,0.094,1.223,0.188,2.868
		c-23.376-2.131-46.407-4.231-69.439-6.33C765.588,369.577,765.644,368.973,765.698,368.368z"/>
	<path fill-rule="evenodd" fill="#FFFFFF" d="M789.245,308.605c-3.347-0.12-6.931-3.533-6.709-6.653
		c0.206-2.895,1.744-4.425,4.907-4.219c4.725,0.308,8.293,2.851,8.059,6.006C795.311,306.322,792.236,308.714,789.245,308.605z"/>
	<path fill-rule="evenodd" fill="#FFFFFF" d="M775.34,126.815c2.744,2.455,5.521,4.607,7.824,7.183
		c0.787,0.882,0.7,2.901,0.375,4.247c-0.132,0.545-1.952,0.861-3.033,0.964c-3.694,0.351-5.892-1.671-7.31-4.853
		C771.775,131.166,773.04,128.854,775.34,126.815z"/>
	<path fill-rule="evenodd" fill="#FFFFFF" d="M767.852,296.789c3.869,1.079,6.986,1.682,7.173,5.358
		c0.159,3.163-2.388,4.502-5.262,4.684c-2.979,0.188-7.049-3.461-6.196-5.882C764.158,299.268,766.366,298.155,767.852,296.789z"/>
	<path fill-rule="evenodd" fill="#FFFFFF" d="M757.212,383.729c7.713,5.888,17.75,1.919,24.64,8.692
		C774.969,393.977,760.218,389.14,757.212,383.729z"/>
	<path fill-rule="evenodd" fill="#FFFFFF" d="M712.066,252.28c-4.44-3.994-8.88-7.987-13.801-12.412
		c5.025-1.376,11.565,4.143,14.88,11.275C712.786,251.523,712.426,251.901,712.066,252.28z"/>
	<path fill-rule="evenodd" fill="#FFFFFF" d="M788.848,157.254c-2.357,2.257-4.184,4.004-6.009,5.752
		c-0.784-1.283-2.533-3.175-2.178-3.74c1.253-1.988,3.203-3.549,5.024-5.113C785.758,154.091,787.226,155.654,788.848,157.254z"/>
	<path fill-rule="evenodd" fill="#FFFFFF" d="M767.937,162.867c-0.979-0.512-2.897-0.916-3.097-1.737
		c-0.559-2.302-0.516-4.78-0.429-7.179c0.014-0.388,2.102-1.111,2.151-1.028c0.981,1.629,2.204,3.282,2.527,5.082
		C769.341,159.399,768.426,161.003,767.937,162.867z"/>
	<path fill-rule="evenodd" fill="#FFFFFF" d="M773.374,406.496c-6.195-0.978-11.022-1.739-15.85-2.5
		c0.068-0.518,0.138-1.035,0.206-1.554c4.125,0.248,8.275,0.307,12.356,0.869C771.175,403.462,772.05,405.154,773.374,406.496z"/>
	<path fill-rule="evenodd" fill="#FFFFFF" d="M760.023,412.607c-5.553-1.176-11.106-2.353-16.66-3.527
		c0.093-0.461,0.187-0.922,0.279-1.383c5.586,0.911,11.171,1.822,16.757,2.732C760.275,411.155,760.149,411.882,760.023,412.607z"/>
	<path fill-rule="evenodd" fill="#FFFFFF" d="M1054.691,269.11c-2.703,2.269-5.905,4.655-8.739,7.418
		c-2.895,2.822-5.39,6.05-8.131,9.034c-2.021,2.199-3.787,1.646-5.418-0.621c-1.699-2.365-1.055-3.881,1.287-5.376
		c6.021-3.842,9.081-9.336,9.231-16.597c0.033-1.601,1.186-3.899,2.502-4.603c2.814-1.503,5.436,0.149,7.188,2.412
		c0.875,1.13,0.864,2.952,1.23,4.469C1054.103,266.334,1054.324,267.431,1054.691,269.11z"/>
	<path fill-rule="evenodd" fill="#FFFFFF" d="M933.407,206.567c-0.672-4.604-1.667-9.134-1.923-13.707
		c-0.403-7.178-0.692-14.491,3.721-20.803c0.906-1.296,2.596-2.045,3.925-3.046c0.229,1.437,0.452,2.875,0.688,4.311
		c0.108,0.664,0.005,1.582,0.401,1.945c3.391,3.113,1.407,6.063,0.212,9.378C937.881,191.72,935.809,198.967,933.407,206.567z"/>
	<path fill-rule="evenodd" fill="#FFFFFF" d="M1004.793,91.446c3.207-2.979,5.37-2.635,7.854,1.329
		c0.751,1.2,2.214,1.936,3.27,2.967c1.537,1.501,3.174,2.952,4.42,4.676c0.597,0.826,0.923,2.644,0.43,3.273
		c-0.736,0.937-2.593,1.97-3.466,1.636c-2.378-0.907-5.023-2.066-6.581-3.94C1008.388,98.583,1006.892,95.081,1004.793,91.446z"/>
	<path fill-rule="evenodd" fill="#FFFFFF" d="M1000.933,246.708c-0.667,2.489-0.733,3.98-1.437,5.053
		c-0.888,1.354-2.294,2.366-3.478,3.525c-1.02-1.259-2.125-2.461-3.024-3.801c-0.52-0.771-0.929-1.75-0.996-2.665
		c-0.125-1.729-0.569-3.896,0.26-5.09c0.667-0.961,3.334-1.453,4.54-0.902C998.547,243.629,999.779,245.559,1000.933,246.708z"/>
	<path fill-rule="evenodd" fill="#FFFFFF" d="M1012.152,256.408c-0.853,0.707-2.305,2.873-4.034,3.122
		c-2.496,0.359-5.376-1.261-4.735-4.248c0.544-2.535-0.885-6.674,3.476-7.324C1009.272,247.598,1012.021,251.524,1012.152,256.408z"
		/>
	<path fill-rule="evenodd" fill="#FFFFFF" d="M926.194,195.02c1.976,7.192,6.061,13.17,4.478,20.542
		C926.575,214.746,923.703,202.284,926.194,195.02z"/>
	<path fill-rule="evenodd" fill="#FFFFFF" d="M1025.893,152.127c1.256,2.088,3.228,3.923,3.313,5.842
		c0.134,2.99-1.012,6.038-1.615,9.061c-1.286-0.604-3.579-1.06-3.695-1.839C1023.209,160.592,1023.217,155.956,1025.893,152.127z"/>
	<path fill-rule="evenodd" fill="#FFFFFF" d="M1024.53,334.745c2.273,4.588,4.548,9.174,6.82,13.762
		c-0.649,0.333-1.299,0.666-1.948,0.999c-0.516-1.175-1.371-2.32-1.475-3.53c-0.216-2.518-0.646-4.231-3.622-5.118
		c-1.186-0.354-1.563-3.416-2.307-5.245C1022.843,335.323,1023.687,335.034,1024.53,334.745z"/>
	<path fill-rule="evenodd" fill="#FFFFFF" d="M953.957,226.451c0.151,5.089-3.221,4.845-11.751,5.44
		C945.784,228.087,949.754,227.181,953.957,226.451z"/>
	<path fill-rule="evenodd" fill="#FFFFFF" d="M1020.519,310.081c-1.305-2.646-2.608-5.291-3.913-7.937
		c0.523-0.271,1.049-0.542,1.572-0.813c1.333,2.588,2.666,5.176,4,7.764C1021.624,309.424,1021.071,309.753,1020.519,310.081z"/>
	<path fill-rule="evenodd" d="M351.35,416.261c6.651,0,13.303,0,19.954,0c-6.553,3.352-13.298,2.934-20.102,1.283
		C351.251,417.116,351.301,416.689,351.35,416.261z"/>
</g>
</svg>
